<svg width="82" height="66" viewBox="0 0 82 66" fill="none" xmlns="http://www.w3.org/2000/svg">
<path fill-rule="evenodd" clip-rule="evenodd" d="M63.437 4H18.563C13.6282 4 11.8668 4.58451 10.0703 5.54532C8.11953 6.58859 6.58859 8.11953 5.54532 10.0703C4.58451 11.8668 4 13.6282 4 18.563V47.437C4 52.3718 4.58451 54.1332 5.54532 55.9297C6.58859 57.8805 8.11953 59.4114 10.0703 60.4547C11.8668 61.4155 13.6282 62 18.563 62H63.437C68.3718 62 70.1332 61.4155 71.9297 60.4547C73.8805 59.4114 75.4114 57.8805 76.4547 55.9297C77.4155 54.1332 78 52.3718 78 47.437V18.563C78 13.6282 77.4155 11.8668 76.4547 10.0703C75.4114 8.11953 73.8805 6.58859 71.9297 5.54532C70.1332 4.58451 68.3718 4 63.437 4Z" fill="#EEEEEE" stroke="white" stroke-width="4"/>
<path fill-rule="evenodd" clip-rule="evenodd" d="M18.563 6H63.437C67.8054 6 69.3895 6.45485 70.9865 7.30895C72.5836 8.16306 73.8369 9.41642 74.691 11.0135C74.8631 11.3352 75.019 11.6564 75.1582 12H6.8418C6.981 11.6564 7.13687 11.3352 7.30895 11.0135C8.16305 9.41642 9.41641 8.16306 11.0135 7.30895C12.6105 6.45485 14.1946 6 18.563 6Z" fill="#FF4B4B"/>
<path fill-rule="evenodd" clip-rule="evenodd" d="M75.9973 18C75.9991 18.1824 76 18.37 76 18.563V24H6V18.563C6 18.37 6.00089 18.1824 6.00266 18H75.9973Z" fill="#FF4B4B"/>
<path fill-rule="evenodd" clip-rule="evenodd" d="M76 30V36H6L6 30H76Z" fill="#FF4B4B"/>
<path fill-rule="evenodd" clip-rule="evenodd" d="M76 47.437C76 47.63 75.9991 47.8176 75.9973 48H6.00266C6.00089 47.8176 6 47.63 6 47.437V42H76V47.437Z" fill="#FF4B4B"/>
<path fill-rule="evenodd" clip-rule="evenodd" d="M75.1582 54C75.019 54.3436 74.8631 54.6648 74.691 54.9865C73.8369 56.5836 72.5836 57.8369 70.9865 58.6911C69.3895 59.5452 67.8054 60 63.437 60H18.563C14.1946 60 12.6105 59.5452 11.0135 58.6911C9.41641 57.8369 8.16305 56.5836 7.30895 54.9865C7.13687 54.6648 6.981 54.3436 6.8418 54H75.1582Z" fill="#FF4B4B"/>
<path fill-rule="evenodd" clip-rule="evenodd" d="M18.563 6H41V30H6V18.563C6 14.1946 6.45485 12.6105 7.30895 11.0135C8.16306 9.41642 9.41642 8.16306 11.0135 7.30895C12.6105 6.45485 14.1946 6 18.563 6Z" fill="#1CB0F6"/>
<path d="M33.806 15.6023L32.5305 16.273C32.1299 16.4835 31.6345 16.3295 31.424 15.929C31.3401 15.7695 31.3112 15.5868 31.3416 15.4092L31.5853 13.9889C31.6084 13.8537 31.5636 13.7158 31.4654 13.62L30.4335 12.6141C30.1094 12.2983 30.1028 11.7795 30.4187 11.4555C30.5444 11.3265 30.7092 11.2425 30.8876 11.2166L32.3137 11.0094C32.4494 10.9896 32.5667 10.9044 32.6274 10.7814L33.2652 9.48914C33.4655 9.08336 33.9568 8.91675 34.3625 9.11702C34.5241 9.19676 34.6549 9.32755 34.7347 9.48914L35.3724 10.7814C35.4331 10.9044 35.5505 10.9896 35.6862 11.0094L37.1123 11.2166C37.5601 11.2817 37.8704 11.6974 37.8053 12.1452C37.7794 12.3236 37.6954 12.4884 37.5664 12.6141L36.5344 13.62C36.4362 13.7158 36.3914 13.8537 36.4146 13.9889L36.6582 15.4092C36.7347 15.8552 36.4352 16.2788 35.9892 16.3553C35.8116 16.3857 35.6289 16.3568 35.4694 16.273L34.1938 15.6023C34.0724 15.5385 33.9274 15.5385 33.806 15.6023Z" fill="white"/>
<path d="M33.806 25.6023L32.5305 26.273C32.1299 26.4835 31.6345 26.3295 31.424 25.929C31.3401 25.7695 31.3112 25.5868 31.3416 25.4092L31.5853 23.9889C31.6084 23.8537 31.5636 23.7158 31.4654 23.62L30.4335 22.6141C30.1094 22.2983 30.1028 21.7795 30.4187 21.4555C30.5444 21.3265 30.7092 21.2425 30.8876 21.2166L32.3137 21.0094C32.4494 20.9896 32.5667 20.9044 32.6274 20.7814L33.2652 19.4891C33.4655 19.0834 33.9568 18.9168 34.3625 19.117C34.5241 19.1968 34.6549 19.3276 34.7347 19.4891L35.3724 20.7814C35.4331 20.9044 35.5505 20.9896 35.6862 21.0094L37.1123 21.2166C37.5601 21.2817 37.8704 21.6974 37.8053 22.1452C37.7794 22.3236 37.6954 22.4884 37.5664 22.6141L36.5344 23.62C36.4362 23.7158 36.3914 23.8537 36.4146 23.9889L36.6582 25.4092C36.7347 25.8552 36.4352 26.2788 35.9892 26.3553C35.8116 26.3857 35.6289 26.3568 35.4694 26.273L34.1938 25.6023C34.0724 25.5385 33.9274 25.5385 33.806 25.6023Z" fill="white"/>
<path d="M23.806 15.6023L22.5305 16.273C22.1299 16.4835 21.6345 16.3295 21.424 15.929C21.3401 15.7695 21.3112 15.5868 21.3416 15.4092L21.5853 13.9889C21.6084 13.8537 21.5636 13.7158 21.4654 13.62L20.4335 12.6141C20.1094 12.2983 20.1028 11.7795 20.4187 11.4555C20.5444 11.3265 20.7092 11.2425 20.8876 11.2166L22.3137 11.0094C22.4494 10.9896 22.5667 10.9044 22.6274 10.7814L23.2652 9.48914C23.4655 9.08336 23.9568 8.91675 24.3625 9.11702C24.5241 9.19676 24.6549 9.32755 24.7347 9.48914L25.3724 10.7814C25.4331 10.9044 25.5505 10.9896 25.6862 11.0094L27.1123 11.2166C27.5601 11.2817 27.8704 11.6974 27.8053 12.1452C27.7794 12.3236 27.6954 12.4884 27.5664 12.6141L26.5344 13.62C26.4362 13.7158 26.3914 13.8537 26.4146 13.9889L26.6582 15.4092C26.7347 15.8552 26.4352 16.2788 25.9892 16.3553C25.8116 16.3857 25.6289 16.3568 25.4694 16.273L24.1938 15.6023C24.0724 15.5385 23.9274 15.5385 23.806 15.6023Z" fill="white"/>
<path d="M23.806 25.6023L22.5305 26.273C22.1299 26.4835 21.6345 26.3295 21.424 25.929C21.3401 25.7695 21.3112 25.5868 21.3416 25.4092L21.5853 23.9889C21.6084 23.8537 21.5636 23.7158 21.4654 23.62L20.4335 22.6141C20.1094 22.2983 20.1028 21.7795 20.4187 21.4555C20.5444 21.3265 20.7092 21.2425 20.8876 21.2166L22.3137 21.0094C22.4494 20.9896 22.5667 20.9044 22.6274 20.7814L23.2652 19.4891C23.4655 19.0834 23.9568 18.9168 24.3625 19.117C24.5241 19.1968 24.6549 19.3276 24.7347 19.4891L25.3724 20.7814C25.4331 20.9044 25.5505 20.9896 25.6862 21.0094L27.1123 21.2166C27.5601 21.2817 27.8704 21.6974 27.8053 22.1452C27.7794 22.3236 27.6954 22.4884 27.5664 22.6141L26.5344 23.62C26.4362 23.7158 26.3914 23.8537 26.4146 23.9889L26.6582 25.4092C26.7347 25.8552 26.4352 26.2788 25.9892 26.3553C25.8116 26.3857 25.6289 26.3568 25.4694 26.273L24.1938 25.6023C24.0724 25.5385 23.9274 25.5385 23.806 25.6023Z" fill="white"/>
<path d="M13.806 15.6023L12.5305 16.273C12.1299 16.4835 11.6345 16.3295 11.424 15.929C11.3401 15.7695 11.3112 15.5868 11.3416 15.4092L11.5853 13.9889C11.6084 13.8537 11.5636 13.7158 11.4654 13.62L10.4335 12.6141C10.1094 12.2983 10.1028 11.7795 10.4187 11.4555C10.5444 11.3265 10.7092 11.2425 10.8876 11.2166L12.3137 11.0094C12.4494 10.9896 12.5667 10.9044 12.6274 10.7814L13.2652 9.48914C13.4655 9.08336 13.9568 8.91675 14.3625 9.11702C14.5241 9.19676 14.6549 9.32755 14.7347 9.48914L15.3724 10.7814C15.4331 10.9044 15.5505 10.9896 15.6862 11.0094L17.1123 11.2166C17.5601 11.2817 17.8704 11.6974 17.8053 12.1452C17.7794 12.3236 17.6954 12.4884 17.5664 12.6141L16.5344 13.62C16.4362 13.7158 16.3914 13.8537 16.4146 13.9889L16.6582 15.4092C16.7347 15.8552 16.4352 16.2788 15.9892 16.3553C15.8116 16.3857 15.6289 16.3568 15.4694 16.273L14.1938 15.6023C14.0724 15.5385 13.9274 15.5385 13.806 15.6023Z" fill="white"/>
<path d="M13.806 25.6023L12.5305 26.273C12.1299 26.4835 11.6345 26.3295 11.424 25.929C11.3401 25.7695 11.3112 25.5868 11.3416 25.4092L11.5853 23.9889C11.6084 23.8537 11.5636 23.7158 11.4654 23.62L10.4335 22.6141C10.1094 22.2983 10.1028 21.7795 10.4187 21.4555C10.5444 21.3265 10.7092 21.2425 10.8876 21.2166L12.3137 21.0094C12.4494 20.9896 12.5667 20.9044 12.6274 20.7814L13.2652 19.4891C13.4655 19.0834 13.9568 18.9168 14.3625 19.117C14.5241 19.1968 14.6549 19.3276 14.7347 19.4891L15.3724 20.7814C15.4331 20.9044 15.5505 20.9896 15.6862 21.0094L17.1123 21.2166C17.5601 21.2817 17.8704 21.6974 17.8053 22.1452C17.7794 22.3236 17.6954 22.4884 17.5664 22.6141L16.5344 23.62C16.4362 23.7158 16.3914 23.8537 16.4146 23.9889L16.6582 25.4092C16.7347 25.8552 16.4352 26.2788 15.9892 26.3553C15.8116 26.3857 15.6289 26.3568 15.4694 26.273L14.1938 25.6023C14.0724 25.5385 13.9274 25.5385 13.806 25.6023Z" fill="white"/>
</svg>
