<svg width="82" height="66" viewBox="0 0 82 66" fill="none" xmlns="http://www.w3.org/2000/svg">
<path d="M63.437 4H18.563C13.6282 4 11.8668 4.58451 10.0703 5.54532C8.11953 6.58859 6.58859 8.11953 5.54532 10.0703C4.58451 11.8668 4 13.6282 4 18.563V47.437C4 52.3718 4.58451 54.1332 5.54532 55.9297C6.58859 57.8805 8.11953 59.4114 10.0703 60.4547C11.8668 61.4155 13.6282 62 18.563 62H63.437C68.3718 62 70.1332 61.4155 71.9297 60.4547C73.8805 59.4114 75.4114 57.8805 76.4547 55.9297C77.4155 54.1332 78 52.3718 78 47.437V18.563C78 13.6282 77.4155 11.8668 76.4547 10.0703C75.4114 8.11953 73.8805 6.58859 71.9297 5.54532C70.1332 4.58451 68.3718 4 63.437 4Z" fill="#7AC70C" stroke="white" stroke-width="4"/>
<path d="M18.563 6H41V33C41 35.2091 39.2091 37 37 37H6V18.563C6 14.1946 6.45485 12.6105 7.30895 11.0135C8.16306 9.41642 9.41642 8.16306 11.0135 7.30895C12.6105 6.45485 14.1946 6 18.563 6Z" fill="#EEEEEE"/>
<path d="M22.5968 28.7119L19.1795 30.5085C18.1381 31.056 16.8501 30.6556 16.3026 29.6142C16.0846 29.1995 16.0094 28.7246 16.0886 28.2628L16.7412 24.4576C16.7894 24.1764 16.6962 23.8896 16.492 23.6905L13.7273 20.9956C12.8848 20.1744 12.8676 18.8256 13.6888 17.9832C14.0158 17.6477 14.4443 17.4293 14.9079 17.362L18.7286 16.8068C19.0109 16.7658 19.2549 16.5885 19.3812 16.3327L21.0898 12.8706C21.6105 11.8156 22.8879 11.3824 23.9429 11.9031C24.363 12.1104 24.7031 12.4505 24.9104 12.8706L26.6191 16.3327C26.7453 16.5885 26.9893 16.7658 27.2716 16.8068L31.0923 17.362C32.2566 17.5312 33.0633 18.6122 32.8941 19.7764C32.8267 20.2401 32.6084 20.6686 32.2729 20.9956L29.5082 23.6905C29.304 23.8896 29.2108 24.1764 29.259 24.4576L29.9116 28.2628C30.1105 29.4224 29.3317 30.5237 28.1721 30.7225C27.7104 30.8017 27.2354 30.7265 26.8207 30.5085L23.4034 28.7119C23.1509 28.5792 22.8493 28.5792 22.5968 28.7119Z" fill="#7AC70C"/>
</svg>
