<svg width="82" height="66" viewBox="0 0 82 66" fill="none" xmlns="http://www.w3.org/2000/svg">
<path d="M63.437 4H18.563C13.6282 4 11.8668 4.58451 10.0703 5.54532C8.11953 6.58859 6.58859 8.11953 5.54532 10.0703C4.58451 11.8668 4 13.6282 4 18.563V47.437C4 52.3718 4.58451 54.1332 5.54532 55.9297C6.58859 57.8805 8.11953 59.4114 10.0703 60.4547C11.8668 61.4155 13.6282 62 18.563 62H63.437C68.3718 62 70.1332 61.4155 71.9297 60.4547C73.8805 59.4114 75.4114 57.8805 76.4547 55.9297C77.4155 54.1332 78 52.3718 78 47.437V18.563C78 13.6282 77.4155 11.8668 76.4547 10.0703C75.4114 8.11953 73.8805 6.58859 71.9297 5.54532C70.1332 4.58451 68.3718 4 63.437 4Z" fill="#1CB0F6" stroke="white" stroke-width="4"/>
<path fill-rule="evenodd" clip-rule="evenodd" d="M63.437 4H18.563C13.6282 4 11.8668 4.58451 10.0703 5.54532C8.11953 6.58859 6.58859 8.11953 5.54532 10.0703C4.58451 11.8668 4 13.6282 4 18.563V47.437C4 52.3718 4.58451 54.1332 5.54532 55.9297C6.58859 57.8805 8.11953 59.4114 10.0703 60.4547C11.8668 61.4155 13.6282 62 18.563 62H63.437C68.3718 62 70.1332 61.4155 71.9297 60.4547C73.8805 59.4114 75.4114 57.8805 76.4547 55.9297C77.4155 54.1332 78 52.3718 78 47.437V18.563C78 13.6282 77.4155 11.8668 76.4547 10.0703C75.4114 8.11953 73.8805 6.58859 71.9297 5.54532C70.1332 4.58451 68.3718 4 63.437 4Z" stroke="white" stroke-width="4"/>
<mask id="mask0_781_4650" style="mask-type:luminance" maskUnits="userSpaceOnUse" x="6" y="6" width="70" height="54">
<path d="M18.563 6H63.437C67.8054 6 69.3895 6.45485 70.9865 7.30895C72.5836 8.16306 73.8369 9.41642 74.691 11.0135C75.5452 12.6105 76 14.1946 76 18.563V47.437C76 51.8054 75.5452 53.3895 74.691 54.9865C73.8369 56.5836 72.5836 57.8369 70.9865 58.6911C69.3895 59.5452 67.8054 60 63.437 60H18.563C14.1946 60 12.6105 59.5452 11.0135 58.6911C9.41642 57.8369 8.16306 56.5836 7.30895 54.9865C6.45485 53.3895 6 51.8054 6 47.437V18.563C6 14.1946 6.45485 12.6105 7.30895 11.0135C8.16306 9.41642 9.41642 8.16306 11.0135 7.30895C12.6105 6.45485 14.1946 6 18.563 6Z" fill="white"/>
</mask>
<g mask="url(#mask0_781_4650)">
<path d="M69.522 6.66442C70.0554 6.84429 70.5205 7.05956 70.9866 7.30884C72.5836 8.16294 73.837 9.41631 74.6911 11.0133C75.3187 12.187 75.7308 13.3536 75.9051 15.6234L51.089 32.9999L75.9051 50.3764C75.7308 52.6462 75.3187 53.8128 74.6911 54.9864C73.837 56.5835 72.5836 57.8368 70.9866 58.6909C70.5205 58.9402 70.0554 59.1555 69.522 59.3354L41.5 39.7141L13.1839 59.5413C12.3311 59.3286 11.6734 59.0439 11.0135 58.6909C9.41643 57.8368 8.16307 56.5835 7.30896 54.9864C6.74498 53.9319 6.35508 52.8829 6.15527 51.0343L31.9111 32.9999L6.15527 14.9655C6.35508 13.1168 6.74498 12.0679 7.30896 11.0133C8.16307 9.41631 9.41643 8.16294 11.0135 7.30884C11.6734 6.95591 12.3311 6.67116 13.1839 6.4585L41.5 26.2856L69.522 6.66442Z" fill="#EEEEEE"/>
</g>
</svg>
