<svg width="82" height="66" viewBox="0 0 82 66" fill="none" xmlns="http://www.w3.org/2000/svg">
<path d="M63.437 4H18.563C13.6282 4 11.8668 4.58451 10.0703 5.54532C8.11953 6.58859 6.58859 8.11953 5.54532 10.0703C4.58451 11.8668 4 13.6282 4 18.563V47.437C4 52.3718 4.58451 54.1332 5.54532 55.9297C6.58859 57.8805 8.11953 59.4114 10.0703 60.4547C11.8668 61.4155 13.6282 62 18.563 62H63.437C68.3718 62 70.1332 61.4155 71.9297 60.4547C73.8805 59.4114 75.4114 57.8805 76.4547 55.9297C77.4155 54.1332 78 52.3718 78 47.437V18.563C78 13.6282 77.4155 11.8668 76.4547 10.0703C75.4114 8.11953 73.8805 6.58859 71.9297 5.54532C70.1332 4.58451 68.3718 4 63.437 4Z" fill="#FF4B4B" stroke="white" stroke-width="4"/>
<path d="M6 21.68C6 16.1915 6 13.4472 7.06814 11.3509C8.0077 9.5069 9.5069 8.0077 11.3509 7.06814C13.4472 6 16.1915 6 21.68 6H60.32C65.8085 6 68.5528 6 70.6491 7.06814C72.4931 8.0077 73.9923 9.5069 74.9319 11.3509C76 13.4472 76 16.1915 76 21.68V44.32C76 49.8085 76 52.5528 74.9319 54.6491C73.9923 56.4931 72.4931 57.9923 70.6491 58.9319C68.5528 60 65.8085 60 60.32 60H21.68C16.1915 60 13.4472 60 11.3509 58.9319C9.5069 57.9923 8.0077 56.4931 7.06814 54.6491C6 52.5528 6 49.8085 6 44.32V21.68Z" fill="#1254A9"/>
<path d="M21.68 60H60.32C65.8085 60 68.5528 60 70.6491 58.9319C72.4931 57.9923 73.9923 56.4931 74.9319 54.6491C76 52.5528 76 49.8085 76 44.32V33H6V44.32C6 49.8085 6 52.5528 7.06814 54.6491C8.00769 56.4931 9.5069 57.9923 11.3509 58.9319C13.4472 60 16.1915 60 21.68 60Z" fill="#FF4B4B"/>
<path d="M31.5 28.5C31.5 26.8431 32.8431 25.5 34.5 25.5H47.5C49.1569 25.5 50.5 26.8431 50.5 28.5V37.5C50.5 39.1569 49.1569 40.5 47.5 40.5H34.5C32.8431 40.5 31.5 39.1569 31.5 37.5V28.5Z" fill="white"/>
<path d="M43.7212 28.4978C44.3936 28.1537 45.2363 28.4664 45.283 29.2203C45.2975 29.4535 45.2929 29.6883 45.269 29.9222C45.1972 30.6242 44.9534 31.2977 44.5591 31.883C44.1649 32.4683 43.6324 32.9473 43.0088 33.2777C42.3852 33.608 41.6898 33.7795 40.9841 33.7768C40.2784 33.7742 39.5843 33.5976 38.9632 33.2626C38.342 32.9276 37.8131 32.4446 37.4233 31.8564C37.0334 31.2682 36.7946 30.5929 36.7281 29.8904C36.7059 29.6561 36.7031 29.4212 36.7193 29.188C36.7717 28.4346 37.6164 28.1281 38.2862 28.4769L41.0001 29.8904L43.7212 28.4978Z" fill="#47A600"/>
<path d="M39.9761 37.9557C40.4309 37.675 40.427 37.0503 40.0491 36.6724L35.5285 32.1518C35.1506 31.7739 34.5259 31.77 34.2452 32.2248C33.8427 32.8769 33.6245 33.6333 33.6245 34.4121C33.6245 35.5165 34.0632 36.5757 34.8442 37.3567C35.6252 38.1377 36.6844 38.5764 37.7888 38.5764C38.5676 38.5764 39.324 38.3582 39.9761 37.9557Z" fill="#1254A9"/>
<path d="M42.0239 37.9557C41.569 37.675 41.573 37.0503 41.9509 36.6724L46.4715 32.1518C46.8495 31.7739 47.4741 31.77 47.7549 32.2248C48.1574 32.8769 48.3755 33.6333 48.3755 34.4121C48.3755 35.5165 47.9368 36.5757 47.1558 37.3567C46.3749 38.1377 45.3157 38.5764 44.2112 38.5764C43.4324 38.5764 42.676 38.3582 42.0239 37.9557Z" fill="#1254A9"/>
<path d="M40.0491 36.6726C40.427 37.0505 40.4309 37.6752 39.9761 37.9559C39.324 38.3584 38.5676 38.5766 37.7888 38.5766C37.1659 38.5766 36.5574 38.437 36.005 38.1752C36.0017 38.1173 36 38.0589 36 38.0002C36 36.538 37.0461 35.3201 38.4307 35.0542L40.0491 36.6726Z" fill="#FF4B4B"/>
<path d="M43.5694 35.0542L41.9509 36.6726C41.573 37.0505 41.569 37.6752 42.0239 37.9559C42.676 38.3584 43.4324 38.5766 44.2112 38.5766C44.8341 38.5766 45.4426 38.437 45.9949 38.1752C45.9982 38.1173 46 38.059 46 38.0002C46 36.538 44.9539 35.3202 43.5694 35.0542Z" fill="#FF4B4B"/>
</svg>
