<svg width="82" height="66" viewBox="0 0 82 66" fill="none" xmlns="http://www.w3.org/2000/svg">
<path d="M63.437 4H18.563C13.6282 4 11.8668 4.58451 10.0703 5.54532C8.11953 6.58859 6.58859 8.11953 5.54532 10.0703C4.58451 11.8668 4 13.6282 4 18.563V47.437C4 52.3718 4.58451 54.1332 5.54532 55.9297C6.58859 57.8805 8.11953 59.4114 10.0703 60.4547C11.8668 61.4155 13.6282 62 18.563 62H63.437C68.3718 62 70.1332 61.4155 71.9297 60.4547C73.8805 59.4114 75.4114 57.8805 76.4547 55.9297C77.4155 54.1332 78 52.3718 78 47.437V18.563C78 13.6282 77.4155 11.8668 76.4547 10.0703C75.4114 8.11953 73.8805 6.58859 71.9297 5.54532C70.1332 4.58451 68.3718 4 63.437 4Z" fill="#EEEEEE" stroke="white" stroke-width="4"/>
<path d="M76 15H6V24H76V15Z" fill="#FF4B4B"/>
<path d="M76 24H6V33H76V24Z" fill="#1899D6"/>
<path d="M45 6V33H6V18.563C6 14.1946 6.45485 12.6105 7.30895 11.0135C8.16306 9.41642 9.41642 8.16306 11.0135 7.30895L11.4508 7.08595C12.9215 6.37591 14.5917 6 18.563 6H45Z" fill="#1899D6"/>
<path d="M23 6V14.9425L25.4814 16.7453L28 14.9154V6H31V12.7358L40.271 6H45V8.74455L37.7665 14H45V17H33.6373L29.7346 19.8355L32.7138 22H45V25H36.8429L45 30.9264V33H39.3475L31 26.9352V33H28V24.7556L25.4814 22.9257L23 24.7285V33H20V26.9081L11.6152 33H6V30.8994L14.1198 25H6V22H18.2489L21.2281 19.8355L17.3254 17L6.02279 16.999C6.06193 15.7629 6.15119 14.798 6.2885 13.9995L13.1962 14L7.85392 10.1185C8.6651 8.94264 9.72794 7.99645 11.0135 7.30895C11.3051 7.15299 11.5963 7.01034 11.9041 6.88134L20 12.7629V6H23Z" fill="#EEEEEE"/>
<path d="M75.8485 51C75.6498 52.8701 75.2586 53.9255 74.6911 54.9865C73.837 56.5836 72.5836 57.8369 70.9866 58.6911C69.3895 59.5452 67.8054 60 63.437 60H18.5631C14.1946 60 12.6105 59.5452 11.0135 58.6911C9.41645 57.8369 8.16309 56.5836 7.30899 54.9865C6.74151 53.9255 6.35029 52.8701 6.15161 51H75.8485Z" fill="#1899D6"/>
<path d="M76 47.437C76 48.903 75.9488 50.0554 75.8484 51H6.15158C6.05123 50.0554 6 48.903 6 47.437V42H76V47.437Z" fill="#FF4B4B"/>
<path d="M28 17H45V22H28V33H23V22H6V17H23V6H28V17Z" fill="#FF4B4B"/>
</svg>
