<svg width="82" height="66" viewBox="0 0 82 66" fill="none" xmlns="http://www.w3.org/2000/svg">
<path d="M63.437 4H18.563C13.6282 4 11.8668 4.58451 10.0703 5.54532C8.11953 6.58859 6.58859 8.11953 5.54532 10.0703C4.58451 11.8668 4 13.6282 4 18.563V47.437C4 52.3718 4.58451 54.1332 5.54532 55.9297C6.58859 57.8805 8.11953 59.4114 10.0703 60.4547C11.8668 61.4155 13.6282 62 18.563 62H63.437C68.3718 62 70.1332 61.4155 71.9297 60.4547C73.8805 59.4114 75.4114 57.8805 76.4547 55.9297C77.4155 54.1332 78 52.3718 78 47.437V18.563C78 13.6282 77.4155 11.8668 76.4547 10.0703C75.4114 8.11953 73.8805 6.58859 71.9297 5.54532C70.1332 4.58451 68.3718 4 63.437 4Z" fill="#EEEEEE" stroke="white" stroke-width="4"/>
<path d="M75.9974 48C75.959 51.9454 75.5074 53.4601 74.6911 54.9865C74.5012 55.3415 74.2916 55.6796 74.0629 56H7.93713C7.70842 55.6796 7.49883 55.3415 7.30898 54.9865C6.49261 53.4601 6.041 51.9454 6.00269 48H75.9974Z" fill="#1CB0F6"/>
<path d="M74.0629 10C74.2916 10.3204 74.5012 10.6585 74.6911 11.0135C75.5074 12.5399 75.959 14.0546 75.9974 18H6.00269C6.041 14.0546 6.49261 12.5399 7.30898 11.0135C7.49883 10.6585 7.70842 10.3204 7.93713 10H74.0629Z" fill="#1CB0F6"/>
<path d="M41.5282 23.0155C41.5255 23.0112 41.5218 23.0075 41.5175 23.0048C41.5018 22.9951 41.4813 22.9998 41.4716 23.0155L32.283 37.8033C32.2797 37.8086 32.278 37.8147 32.278 37.8209C32.278 37.8393 32.2929 37.8543 32.3113 37.8543H50.6884C50.6946 37.8543 50.7007 37.8525 50.706 37.8492C50.7218 37.8395 50.7264 37.819 50.7167 37.8033L41.5282 23.0155ZM43.7366 21.6433L52.9251 36.4311C53.6927 37.6664 53.3135 39.2901 52.0782 40.0576C51.661 40.3169 51.1796 40.4543 50.6884 40.4543H32.3113C30.857 40.4543 29.678 39.2753 29.678 37.8209C29.678 37.3297 29.8154 36.8483 30.0746 36.4311L39.2631 21.6433C40.0307 20.408 41.6544 20.0288 42.8897 20.7964C43.2333 21.0099 43.5231 21.2997 43.7366 21.6433Z" fill="#1CB0F6"/>
<path d="M41.4719 42.6839C41.4746 42.6882 41.4783 42.6919 41.4826 42.6946C41.4983 42.7043 41.5188 42.6996 41.5285 42.6839L50.7171 27.896C50.7204 27.8908 50.7221 27.8847 50.7221 27.8785C50.7221 27.86 50.7072 27.8451 50.6888 27.8451H32.3117C32.3055 27.8451 32.2994 27.8469 32.2941 27.8501C32.2783 27.8599 32.2736 27.8804 32.2834 27.896L41.4719 42.6839ZM39.2635 44.0561L30.075 29.2683C29.3074 28.033 29.6866 26.4093 30.9219 25.6417C31.3391 25.3825 31.8205 25.2451 32.3117 25.2451H50.6888C52.1431 25.2451 53.3221 26.4241 53.3221 27.8785C53.3221 28.3696 53.1847 28.851 52.9255 29.2683L43.7369 44.0561C42.9694 45.2914 41.3457 45.6706 40.1104 44.903C39.7668 44.6895 39.477 44.3997 39.2635 44.0561Z" fill="#1CB0F6"/>
</svg>
