<svg width="82" height="66" viewBox="0 0 82 66" fill="none" xmlns="http://www.w3.org/2000/svg">
<path d="M63.437 4H18.563C13.6282 4 11.8668 4.58451 10.0703 5.54532C8.11953 6.58859 6.58859 8.11953 5.54532 10.0703C4.58451 11.8668 4 13.6282 4 18.563V47.437C4 52.3718 4.58451 54.1332 5.54532 55.9297C6.58859 57.8805 8.11953 59.4114 10.0703 60.4547C11.8668 61.4155 13.6282 62 18.563 62H63.437C68.3718 62 70.1332 61.4155 71.9297 60.4547C73.8805 59.4114 75.4114 57.8805 76.4547 55.9297C77.4155 54.1332 78 52.3718 78 47.437V18.563C78 13.6282 77.4155 11.8668 76.4547 10.0703C75.4114 8.11953 73.8805 6.58859 71.9297 5.54532C70.1332 4.58451 68.3718 4 63.437 4Z" fill="#4B4B4B" stroke="white" stroke-width="4"/>
<path d="M41.1009 15.9804L46.7596 13.193C47.4033 12.876 48.141 13.4027 48.05 14.1144L47.6814 17.0002H53C62.9412 17.0002 71 25.0591 71 35.0002C71 44.9413 62.9412 53.0002 53 53.0002H46.4762C44.5599 53.0002 43 54.5637 43 56.5002C43 58.4368 44.5599 60.0002 46.4762 60.0002H56H29.3497C29.1204 58.8692 29 57.6988 29 56.5002C29 46.8388 36.8208 39.0002 46.4762 39.0002H53C55.2092 39.0002 57 37.2093 57 35.0002C57 32.7911 55.2092 31.0002 53 31.0002H44.2645L44.8239 33.0912C44.9727 33.6473 44.5683 34.1982 43.9931 34.2229L36.867 34.529L38.1735 36.4906C38.559 37.0695 38.1702 37.8483 37.4757 37.888L26.9233 38.4909C25.5311 38.5704 24.1935 38.2515 23.0342 37.6236L20.2643 39.0452C19.81 39.2784 19.253 39.0873 19.0374 38.6244C16.6788 33.5583 18.2718 27.5305 22.8254 24.2911L39.5974 12.36C40.1838 11.9428 40.9984 12.3485 41.0187 13.0679L41.1009 15.9804Z" fill="#FF4B4B"/>
<path d="M19.4814 44.8223L14.2852 47.8223C13.8069 48.0984 13.1954 47.9345 12.9192 47.4562C11.8146 45.5431 12.4701 43.0967 14.3833 41.9921C16.2965 40.8876 18.7428 41.5431 19.8474 43.4562C20.1236 43.9345 19.9597 44.5461 19.4814 44.8223Z" fill="#FF9600"/>
<path d="M16.4879 43.9751L22.55 40.4751C23.0283 40.199 23.6399 40.3628 23.9161 40.8411C25.0206 42.7543 24.3651 45.2007 22.452 46.3052L21.5859 46.8052C19.6728 47.9098 17.2264 47.2543 16.1218 45.3411C15.8457 44.8628 16.0096 44.2512 16.4879 43.9751Z" fill="#FFC300"/>
<path d="M13.5001 51.1338L16.9642 49.1338C17.4425 48.8576 18.054 49.0215 18.3302 49.4998C19.1586 50.9347 18.667 52.7695 17.2321 53.5979C15.7972 54.4263 13.9625 53.9347 13.134 52.4998C12.8579 52.0215 13.0218 51.4099 13.5001 51.1338Z" fill="#FFC300"/>
<path d="M25.9275 27.8148L29.7458 23.9905C30.0974 23.6384 30.668 23.6384 31.0196 23.9905C32.0737 25.0462 32.0737 26.7561 31.0196 27.8119L29.7468 29.0866C28.6938 30.1413 26.9851 30.1427 25.9304 29.0896L25.9275 29.0866C25.5767 28.7353 25.5767 28.1662 25.9275 27.8148Z" fill="#FFC300"/>
</svg>
