<svg width="82" height="66" viewBox="0 0 82 66" fill="none" xmlns="http://www.w3.org/2000/svg">
<path d="M63.437 4H18.563C13.6282 4 11.8668 4.58451 10.0703 5.54532C8.11953 6.58859 6.58859 8.11953 5.54532 10.0703C4.58451 11.8668 4 13.6282 4 18.563V47.437C4 52.3718 4.58451 54.1332 5.54532 55.9297C6.58859 57.8805 8.11953 59.4114 10.0703 60.4547C11.8668 61.4155 13.6282 62 18.563 62H63.437C68.3718 62 70.1332 61.4155 71.9297 60.4547C73.8805 59.4114 75.4114 57.8805 76.4547 55.9297C77.4155 54.1332 78 52.3718 78 47.437V18.563C78 13.6282 77.4155 11.8668 76.4547 10.0703C75.4114 8.11953 73.8805 6.58859 71.9297 5.54532C70.1332 4.58451 68.3718 4 63.437 4Z" fill="#FF4B4B" stroke="white" stroke-width="4"/>
<path d="M41 49C49.8366 49 57 41.8366 57 33C57 24.1634 49.8366 17 41 17C32.1634 17 25 24.1634 25 33C25 41.8366 32.1634 49 41 49Z" fill="#EEEEEE"/>
<path d="M42.8384 15.3981L47.7737 32.2151C48.0505 33.1582 47.7929 34.1772 47.1013 34.8754L43.0296 38.9864C41.9803 40.0458 40.2707 40.054 39.2113 39.0047C39.2052 38.9986 39.1991 38.9925 39.193 38.9864L35.1211 34.8755C34.4295 34.1772 34.1719 33.1582 34.4487 32.2151L39.384 15.3981C39.664 14.4442 40.6642 13.8979 41.6181 14.1778C42.206 14.3504 42.6658 14.8101 42.8384 15.3981Z" fill="#4B4B4B"/>
<path d="M32.902 36.121C33.4201 36.725 37.3162 40.6416 37.9498 41.2081C38.893 42.0515 38.2619 43.6126 36.9974 43.5634C34.1527 43.4527 31.7091 44.3921 29.6486 46.041C28.9612 46.5911 28.3691 47.181 27.8758 47.7681C27.5876 48.1112 27.4023 48.3675 27.3225 48.4931C26.8935 49.1684 25.9746 49.3245 25.3466 48.8289C21.3235 45.6538 24.3626 37.6814 31.5168 35.699C32.0213 35.5592 32.5611 35.7237 32.902 36.121Z" fill="#4B4B4B"/>
<path d="M44.1442 42.6556C44.0533 42.5402 43.9468 42.3966 43.8147 42.2186C43.6691 41.6699 43.895 41.1997 44.2658 40.9298C44.2942 40.903 44.333 40.8657 44.3804 40.8195C44.5176 40.6858 44.719 40.4854 44.9868 40.2163C45.219 39.9829 45.4957 39.7034 45.8576 39.3369C46.0758 39.1158 46.3474 38.8404 46.8598 38.3209L46.8764 38.3041C48.5075 36.6507 49.2689 35.8885 49.5891 35.602C50.2293 35.0292 51.2455 35.2835 51.5404 36.0903C52.3177 38.2166 53.7533 39.7252 55.6136 40.7364C56.2719 41.0943 56.9363 41.3621 57.5695 41.5515C57.9396 41.6622 58.2067 41.7206 58.3332 41.7402C59.1201 41.8623 59.5788 42.6958 59.2609 43.4259C58.4231 45.35 56.0322 46.8287 53.3177 47.0397C50.1443 47.2863 46.8779 45.8701 44.0798 42.7128L44.1442 42.6556ZM45.2384 40.7094C45.3023 40.7225 45.3657 40.7412 45.4281 40.7658C45.3693 40.7361 45.3083 40.7188 45.2384 40.7094Z" fill="#4B4B4B"/>
</svg>
