<svg width="82" height="66" viewBox="0 0 82 66" fill="none" xmlns="http://www.w3.org/2000/svg">
<path fill-rule="evenodd" clip-rule="evenodd" d="M63.437 4H18.563C13.6282 4 11.8668 4.58451 10.0703 5.54532C8.11953 6.58859 6.58859 8.11953 5.54532 10.0703C4.58451 11.8668 4 13.6282 4 18.563V47.437C4 52.3718 4.58451 54.1332 5.54532 55.9297C6.58859 57.8805 8.11953 59.4114 10.0703 60.4547C11.8668 61.4155 13.6282 62 18.563 62H63.437C68.3718 62 70.1332 61.4155 71.9297 60.4547C73.8805 59.4114 75.4114 57.8805 76.4547 55.9297C77.4155 54.1332 78 52.3718 78 47.437V18.563C78 13.6282 77.4155 11.8668 76.4547 10.0703C75.4114 8.11953 73.8805 6.58859 71.9297 5.54532C70.1332 4.58451 68.3718 4 63.437 4Z" fill="#EEEEEE" stroke="white" stroke-width="4"/>
<path d="M41 46C48.1797 46 54 40.1797 54 33C54 25.8203 48.1797 20 41 20C33.8203 20 28 25.8203 28 33C28 40.1797 33.8203 46 41 46Z" fill="#FF4B4B"/>
<path d="M28.0095 33.502C30.2333 35.8234 32.4234 36.9841 34.5796 36.9841C36.7389 36.9841 38.8885 35.8201 41.0285 33.4921C42.985 31.164 45.0922 30 47.35 30C49.5266 30 51.7426 31.0819 53.9977 33.2457C53.8668 40.312 48.0976 46 41 46C33.9884 46 28.2733 40.4491 28.0095 33.502Z" fill="#1CB0F6"/>
<path d="M23.0541 53.6354L14.2605 44.8617C13.7473 44.3498 13.7464 43.5187 14.2584 43.0056C14.7704 42.4924 15.6014 42.4915 16.1145 43.0035L24.9082 51.7772C25.4213 52.2892 25.4223 53.1202 24.9103 53.6333C24.3983 54.1465 23.5673 54.1474 23.0541 53.6354Z" fill="#4C4C4C"/>
<path d="M62.5087 26.4432L59.3225 23.2526C58.8103 22.7397 58.8109 21.9087 59.3238 21.3965C59.8367 20.8843 60.6677 20.8848 61.1799 21.3978L64.3662 24.5884C64.8784 25.1013 64.8778 25.9323 64.3649 26.4445C63.852 26.9567 63.0209 26.9562 62.5087 26.4432Z" fill="#4C4C4C"/>
<path d="M15.2395 23.0798C14.7264 23.5918 13.8954 23.5908 13.3834 23.0777C12.8714 22.5645 12.8723 21.7335 13.3855 21.2215L22.1791 12.4478C22.6923 11.9358 23.5233 11.9368 24.0353 12.4499C24.5473 12.9631 24.5463 13.7941 24.0332 14.3061L15.2395 23.0798Z" fill="#4C4C4C"/>
<path d="M56.6911 20.6389L53.7168 17.6713C53.2036 17.1593 53.2027 16.3283 53.7147 15.8152C54.2267 15.302 55.0577 15.3011 55.5708 15.8131L58.5452 18.7806C59.0583 19.2926 59.0592 20.1237 58.5473 20.6368C58.0353 21.1499 57.2043 21.1509 56.6911 20.6389Z" fill="#4C4C4C"/>
<path d="M20.6911 44.3371L17.7168 41.3696C17.2036 40.8576 17.2027 40.0266 17.7147 39.5134C18.2266 39.0003 19.0577 38.9993 19.5708 39.5113L22.5452 42.4789C23.0583 42.9909 23.0592 43.8219 22.5473 44.335C22.0353 44.8482 21.2042 44.8491 20.6911 44.3371Z" fill="#4C4C4C"/>
<path d="M55.4895 50.1433C54.9764 50.6552 54.1454 50.6543 53.6334 50.1412C53.1214 49.628 53.1223 48.797 53.6355 48.285L62.4291 39.5113C62.9423 38.9993 63.7733 39.0003 64.2853 39.5134C64.7973 40.0266 64.7963 40.8576 64.2832 41.3696L55.4895 50.1433Z" fill="#4C4C4C"/>
<path d="M66.0087 22.9511L62.8225 19.7604C62.3103 19.2475 62.3109 18.4165 62.8238 17.9043C63.3367 17.3921 64.1677 17.3927 64.6799 17.9056L67.8662 21.0962C68.3784 21.6091 68.3778 22.4401 67.8649 22.9523C67.352 23.4645 66.5209 23.464 66.0087 22.9511Z" fill="#4C4C4C"/>
<path d="M18.7395 26.572C18.2264 27.084 17.3954 27.083 16.8834 26.5699C16.3714 26.0567 16.3723 25.2257 16.8855 24.7137L25.6791 15.94C26.1923 15.428 27.0233 15.429 27.5353 15.9421C28.0473 16.4553 28.0463 17.2863 27.5332 17.7983L18.7395 26.572Z" fill="#4C4C4C"/>
<path d="M58.9895 53.6354C58.4764 54.1474 57.6454 54.1465 57.1334 53.6333C56.6214 53.1202 56.6223 52.2892 57.1355 51.7772L65.9291 43.0035C66.4423 42.4915 67.2733 42.4924 67.7853 43.0056C68.2973 43.5187 68.2963 44.3498 67.7832 44.8617L58.9895 53.6354Z" fill="#4C4C4C"/>
<path d="M60.1911 17.1467L57.2168 14.1791C56.7036 13.6671 56.7027 12.8361 57.2147 12.323C57.7267 11.8098 58.5577 11.8089 59.0708 12.3209L62.0452 15.2885C62.5583 15.8004 62.5592 16.6315 62.0473 17.1446C61.5353 17.6578 60.7043 17.6587 60.1911 17.1467Z" fill="#4C4C4C"/>
<path d="M26.5087 50.1415L23.3225 46.9509C22.8103 46.438 22.8109 45.6069 23.3238 45.0947C23.8367 44.5825 24.6677 44.5831 25.1799 45.096L28.3662 48.2866C28.8784 48.7995 28.8778 49.6305 28.3649 50.1428C27.852 50.655 27.0209 50.6544 26.5087 50.1415Z" fill="#4C4C4C"/>
</svg>
