<svg width="82" height="66" viewBox="0 0 82 66" fill="none" xmlns="http://www.w3.org/2000/svg">
<path fill-rule="evenodd" clip-rule="evenodd" d="M63.437 4H18.563C13.6282 4 11.8668 4.58451 10.0703 5.54532C8.11953 6.58859 6.58859 8.11953 5.54532 10.0703C4.58451 11.8668 4 13.6282 4 18.563V47.437C4 52.3718 4.58451 54.1332 5.54532 55.9297C6.58859 57.8805 8.11953 59.4114 10.0703 60.4547C11.8668 61.4155 13.6282 62 18.563 62H63.437C68.3718 62 70.1332 61.4155 71.9297 60.4547C73.8805 59.4114 75.4114 57.8805 76.4547 55.9297C77.4155 54.1332 78 52.3718 78 47.437V18.563C78 13.6282 77.4155 11.8668 76.4547 10.0703C75.4114 8.11953 73.8805 6.58859 71.9297 5.54532C70.1332 4.58451 68.3718 4 63.437 4Z" fill="#FF4B4B" stroke="white" stroke-width="4"/>
<path fill-rule="evenodd" clip-rule="evenodd" d="M6 21.4287H76V44.5716H6V21.4287Z" fill="#FFC800"/>
<path fill-rule="evenodd" clip-rule="evenodd" d="M33.2223 27.2139C34.2962 27.2139 35.1667 28.0844 35.1667 29.1583V36.8409C35.1667 37.9147 34.2962 38.7853 33.2223 38.7853C32.1484 38.7853 31.2778 37.9147 31.2778 36.8409V29.1583C31.2778 28.0844 32.1484 27.2139 33.2223 27.2139Z" fill="white"/>
<path fill-rule="evenodd" clip-rule="evenodd" d="M13.7777 27.2139C14.8516 27.2139 15.7221 28.0844 15.7221 29.1583V36.8409C15.7221 37.9147 14.8516 38.7853 13.7777 38.7853C12.7038 38.7853 11.8333 37.9147 11.8333 36.8409V29.1583C11.8333 28.0844 12.7038 27.2139 13.7777 27.2139Z" fill="white"/>
<path fill-rule="evenodd" clip-rule="evenodd" d="M19.4167 25.2861H27.5834C28.5499 25.2861 29.3334 26.0696 29.3334 27.0361V34.8814C29.3334 38.103 26.7217 40.7147 23.5001 40.7147C20.2784 40.7147 17.6667 38.103 17.6667 34.8814V27.0361C17.6667 26.0696 18.4502 25.2861 19.4167 25.2861Z" fill="#FF4B4B"/>
</svg>
