<svg width="82" height="66" viewBox="0 0 82 66" fill="none" xmlns="http://www.w3.org/2000/svg">
<path d="M65.1401 4C65.4157 4 65.6805 4.00176 65.9352 4.00526L66.6671 4.02075L67.6581 4.06299C67.8831 4.07581 68.0987 4.09056 68.3057 4.10718L68.8618 4.15837C70.1668 4.29486 71.1313 4.51839 71.9606 4.80996C75.6815 6.6338 77.0961 8.16777 78.0997 10.0443C78.9221 11.835 79.1272 12.5536 79.2924 13.4512C79.4751 14.7016 79.4899 14.8669 79.5078 15.0618L79.5547 15.6493L79.5918 16.2947L79.6267 17.3359L79.6382 18.4881V47.2294L79.6331 48.0148L79.6061 49.0896L79.575 49.7456C79.5436 50.294 79.5008 50.787 79.4473 51.2355C79.1124 53.2734 78.8755 53.9783 78.604 54.6253C77.0138 57.7241 75.4863 59.1703 73.5939 60.1824C70.8907 61.228 70.0001 61.4277 69.1472 61.5307L68.9576 61.5524L68.8619 61.5625L68.294 61.6148L67.669 61.6575L66.6671 61.7002L65.9216 61.716L20.0971 61.7197L19.3323 61.7093L18.2894 61.6743L17.3497 61.6153L16.7765 61.5626C15.7835 61.4587 14.9898 61.3046 14.3027 61.1093C9.919 59.0844 8.5354 57.5405 7.53856 55.6766C6.4793 53.1465 6.29091 52.2101 6.15838 50.9445L6.1056 50.3712L6.04753 49.4455C6.03667 49.2188 6.02763 48.9826 6.02046 48.7363L6.00511 48.0108L6 47.2294V18.4981C6 18.2226 6.00176 17.9578 6.00526 17.703L6.02075 16.9712L6.06299 15.9802C6.07581 15.7551 6.09056 15.5395 6.10718 15.3326L6.15837 14.7765C6.29486 13.4714 6.51839 12.5069 6.80996 11.6777C8.6338 7.95677 10.1678 6.54217 12.0443 5.53856C14.5744 4.4793 15.5109 4.29091 16.7764 4.15838L17.3497 4.1056L18.2754 4.04753C18.5022 4.03667 18.7383 4.02763 18.9846 4.02046L19.7166 4.00498L65.1401 4Z" fill="#1254A9" stroke="white" stroke-width="4"/>
<path fill-rule="evenodd" clip-rule="evenodd" d="M30.3138 13C30.4848 13 30.6514 13.0539 30.79 13.1539L54.5139 30.2786C55.7611 31.1789 56.5 32.6238 56.5 34.1624V40.43C56.5 40.8797 56.1356 41.2442 55.6862 41.2442C55.5152 41.2442 55.3486 41.1903 55.21 41.0903L38.3448 28.9158C38.4758 29.2447 38.5479 29.6035 38.5479 29.9791V41.1858C38.5479 41.6355 38.1835 42 37.734 42H34.0239C31.5254 42 29.5 39.9737 29.5 37.4742V31.6314C29.5 29.1319 31.5254 27.1056 34.0239 27.1056H35.6755C35.7318 27.1056 35.7877 27.1072 35.8432 27.1104L31.4861 23.9656C30.2389 23.0653 29.5 21.6204 29.5 20.0818V13.8142C29.5 13.3645 29.8644 13 30.3138 13Z" fill="#EEEEEE"/>
<path d="M49.0951 11.2403L46.4215 15.042C44.8087 17.3353 45.3677 20.4955 47.67 22.1006L53.1172 25.8982C53.373 26.0765 53.7257 26.0145 53.9049 25.7597L56.5785 21.958C58.1913 19.6647 57.6323 16.5045 55.33 14.8994L49.8828 11.1018C49.627 10.9235 49.2743 10.9855 49.0951 11.2403Z" fill="#EEEEEE"/>
<path fill-rule="evenodd" clip-rule="evenodd" d="M48.5833 47C49.6419 47 50.5 47.8967 50.5 49.0028C50.5 50.1089 49.6419 51.0056 48.5833 51.0056L45.5807 51.0054L45.9712 53.548C46.1484 54.7023 45.3965 55.7882 44.2918 55.9733C44.1857 55.9911 44.0784 56 43.971 56C42.8522 56 41.9452 55.0523 41.9452 53.8832C41.9452 53.7709 41.9538 53.6588 41.9708 53.548L42.3604 51.0054L39.4167 51.0056C38.3581 51.0056 37.5 50.1089 37.5 49.0028C37.5 47.8967 38.3581 47 39.4167 47H48.5833Z" fill="#EEEEEE"/>
</svg>
