<svg width="82" height="66" viewBox="0 0 82 66" fill="none" xmlns="http://www.w3.org/2000/svg">
<path d="M63.437 4H18.563C13.6282 4 11.8668 4.58451 10.0703 5.54532C8.11953 6.58859 6.58859 8.11953 5.54532 10.0703C4.58451 11.8668 4 13.6282 4 18.563V47.437C4 52.3718 4.58451 54.1332 5.54532 55.9297C6.58859 57.8805 8.11953 59.4114 10.0703 60.4547C11.8668 61.4155 13.6282 62 18.563 62H63.437C68.3718 62 70.1332 61.4155 71.9297 60.4547C73.8805 59.4114 75.4114 57.8805 76.4547 55.9297C77.4155 54.1332 78 52.3718 78 47.437V18.563C78 13.6282 77.4155 11.8668 76.4547 10.0703C75.4114 8.11953 73.8805 6.58859 71.9297 5.54532C70.1332 4.58451 68.3718 4 63.437 4Z" stroke="white" stroke-width="4"/>
<path d="M6 21.68C6 16.1915 6 13.4472 7.06814 11.3509C8.00769 9.5069 9.5069 8.00769 11.3509 7.06814C13.4472 6 16.1915 6 21.68 6H60.32C65.8085 6 68.5528 6 70.6491 7.06814C72.4931 8.00769 73.9923 9.5069 74.9319 11.3509C76 13.4472 76 16.1915 76 21.68V44.32C76 49.8085 76 52.5528 74.9319 54.6491C73.9923 56.4931 72.4931 57.9923 70.6491 58.9319C68.5528 60 65.8085 60 60.32 60H21.68C16.1915 60 13.4472 60 11.3509 58.9319C9.5069 57.9923 8.00769 56.4931 7.06814 54.6491C6 52.5528 6 49.8085 6 44.32V21.68Z" fill="#FF4B4B"/>
<path d="M76 33V44.32C76 49.8085 76 52.5528 74.9318 54.6491C73.9923 56.4931 72.4931 57.9923 70.6491 58.9319C68.5527 60 65.8085 60 60.32 60H21.68C16.1915 60 13.4472 60 11.3509 58.9319C9.5069 57.9923 8.00769 56.4931 7.06814 54.6491C6 52.5528 6 49.8085 6 44.32V33H76Z" fill="#1CB0F6"/>
<path fill-rule="evenodd" clip-rule="evenodd" d="M6.17581 14.784C6 16.4885 6 18.6722 6 21.6801V44.3201C6 47.328 6 49.5117 6.17581 51.2162C6.38117 52.9529 6.76371 53.9671 7.30895 54.9866C7.82178 55.9456 8.47856 56.7806 9.26724 57.4797L41 33.0001L9.26724 8.52051C8.47856 9.21959 7.82178 10.0546 7.30895 11.0136C6.76371 12.0331 6.38118 13.0473 6.17581 14.784Z" fill="#4B4B4B"/>
<path d="M76 22.8823V43.1177H32.4463V22.8823H76Z" fill="#EEEEEE"/>
<path d="M10.0012 7.89959C10.4259 7.58789 10.8769 7.3095 11.3508 7.06807C13.3613 6.04366 15.9678 6.00172 21.0194 6C21.0229 6.00027 21.0264 6.00053 21.0299 6.0008L44.5789 23.6434L34.2918 37.3744L7.85441 17.5679C7.59947 13.9986 7.60082 11.9253 8.31802 10.3186C8.72907 9.3977 9.29945 8.58203 10.0012 7.89959Z" fill="#EEEEEE"/>
<path d="M6.13964 50.8291C6.03013 49.5378 6.00654 47.98 6.00146 46.0234L26.433 30.7061L28.7892 33.849L6.13964 50.8291Z" fill="#FFD900"/>
<path fill-rule="evenodd" clip-rule="evenodd" d="M6.00171 19.8526C6.00765 17.8953 6.03389 16.3411 6.1497 15.0542L30.335 33.1858L27.9788 36.3287L6.00171 19.8526Z" fill="#FFD900"/>
<path d="M14.6498 59.8097C16.2238 59.9833 18.2105 59.9984 20.8942 59.9997L43.8227 42.8104L41.4665 39.6675L14.6057 59.8048C14.6204 59.8065 14.6351 59.8081 14.6498 59.8097Z" fill="#EEEEEE"/>
<path d="M76 26.7871V39.0922H32.4463V26.7871H76Z" fill="#47A600"/>
<path fill-rule="evenodd" clip-rule="evenodd" d="M7.06825 11.3507C6.55231 12.3633 6.2856 13.527 6.14771 15.0782L34.8732 36.5989L42.2242 26.7869L14.7214 6.18213C13.3462 6.3285 12.2844 6.59233 11.351 7.06789C9.50702 8.00745 8.00781 9.50666 7.06825 11.3507Z" fill="#47A600"/>
<path fill-rule="evenodd" clip-rule="evenodd" d="M14.5832 59.8024C13.2745 59.6532 12.2527 59.3914 11.3509 58.9318C9.50689 57.9923 8.00768 56.4931 7.06812 54.6491C6.5399 53.6124 6.2729 52.4173 6.13794 50.8101L34.8731 29.2822L42.2241 39.0942L14.5832 59.8024Z" fill="#47A600"/>
</svg>
