<svg width="82" height="66" viewBox="0 0 82 66" fill="none" xmlns="http://www.w3.org/2000/svg">
<path d="M63.437 4H18.563C13.6282 4 11.8668 4.58451 10.0703 5.54532C8.11953 6.58859 6.58859 8.11953 5.54532 10.0703C4.58451 11.8668 4 13.6282 4 18.563V47.437C4 52.3718 4.58451 54.1332 5.54532 55.9297C6.58859 57.8805 8.11953 59.4114 10.0703 60.4547C11.8668 61.4155 13.6282 62 18.563 62H63.437C68.3718 62 70.1332 61.4155 71.9297 60.4547C73.8805 59.4114 75.4114 57.8805 76.4547 55.9297C77.4155 54.1332 78 52.3718 78 47.437V18.563C78 13.6282 77.4155 11.8668 76.4547 10.0703C75.4114 8.11953 73.8805 6.58859 71.9297 5.54532C70.1332 4.58451 68.3718 4 63.437 4Z" fill="#7AC70C" stroke="white" stroke-width="4"/>
<path fill-rule="evenodd" clip-rule="evenodd" d="M41.5 47.0552C49.5081 47.0552 56 40.7872 56 33.0552C56 25.3232 49.5081 19.0552 41.5 19.0552C33.4919 19.0552 27 25.3232 27 33.0552C27 40.7872 33.4919 47.0552 41.5 47.0552Z" stroke="white" stroke-width="3.2"/>
<path d="M42.3413 19.6627C44.5154 19.6627 46.443 19.7155 46.9999 17" stroke="#7AC70C" stroke-width="6.4" stroke-linecap="round" stroke-linejoin="round"/>
<path fill-rule="evenodd" clip-rule="evenodd" d="M43.0325 48.4273L34.0311 50.8979C32.9659 51.1902 31.8654 50.5637 31.573 49.4985C31.4625 49.0957 31.4808 48.6684 31.6255 48.2766L32.5029 45.8998C32.8089 45.0708 33.729 44.6469 34.558 44.9529C34.5758 44.9594 34.5934 44.9663 34.611 44.9735L43.0325 48.4273Z" fill="white"/>
<path fill-rule="evenodd" clip-rule="evenodd" d="M39.9675 48.4273L48.9689 50.8979C50.0341 51.1902 51.1346 50.5637 51.427 49.4985C51.5375 49.0957 51.5192 48.6684 51.3745 48.2766L50.4971 45.8998C50.1911 45.0708 49.271 44.6469 48.442 44.9529C48.4242 44.9594 48.4066 44.9663 48.389 44.9735L39.9675 48.4273Z" fill="white"/>
<path fill-rule="evenodd" clip-rule="evenodd" d="M42.0709 18.8682L38.1848 19.6493L37.8015 20.5838C38.9198 20.4091 40.2373 20.2688 41.7541 20.1638C43.1351 20.0682 44.2807 19.546 45.1921 18.5996L42.0709 18.8682Z" stroke="white"/>
<path d="M41.5 42C46.7467 42 51 37.7467 51 32.5C51 27.2533 46.7467 23 41.5 23C36.2533 23 32 27.2533 32 32.5C32 37.7467 36.2533 42 41.5 42Z" fill="white"/>
<path d="M41.5 36C45.6421 36 49 32.6421 49 28.5C49 24.3579 45.6421 21 41.5 21C37.3579 21 34 24.3579 34 28.5C34 32.6421 37.3579 36 41.5 36Z" fill="#7AC70C"/>
<path fill-rule="evenodd" clip-rule="evenodd" d="M41.1693 19.8269C40.9668 18.2754 41.4598 16.6727 42.6477 15.5256C43.7926 14.42 45.3378 13.9742 46.83 14.173C47.0334 15.7243 46.5404 17.3271 45.3525 18.4742C44.2096 19.5779 42.6675 20.0241 41.1777 19.8278L41.1693 19.8269Z" fill="white" stroke="white" stroke-width="0.758739" stroke-linecap="round" stroke-linejoin="round"/>
<path fill-rule="evenodd" clip-rule="evenodd" d="M41.8307 19.8269C42.0332 18.2754 41.5402 16.6727 40.3523 15.5256C39.2074 14.42 37.6622 13.9742 36.17 14.173C35.9666 15.7243 36.4596 17.3271 37.6475 18.4742C38.7904 19.5779 40.3325 20.0241 41.8223 19.8278L41.8307 19.8269Z" fill="white" stroke="white" stroke-width="0.758739" stroke-linecap="round" stroke-linejoin="round"/>
</svg>
