<svg width="82" height="66" viewBox="0 0 82 66" fill="none" xmlns="http://www.w3.org/2000/svg">
<path fill-rule="evenodd" clip-rule="evenodd" d="M63.437 4H18.563C13.6282 4 11.8668 4.58451 10.0703 5.54532C8.11953 6.58859 6.58859 8.11953 5.54532 10.0703C4.58451 11.8668 4 13.6282 4 18.563V47.437C4 52.3718 4.58451 54.1332 5.54532 55.9297C6.58859 57.8805 8.11953 59.4114 10.0703 60.4547C11.8668 61.4155 13.6282 62 18.563 62H63.437C68.3718 62 70.1332 61.4155 71.9297 60.4547C73.8805 59.4114 75.4114 57.8805 76.4547 55.9297C77.4155 54.1332 78 52.3718 78 47.437V18.563C78 13.6282 77.4155 11.8668 76.4547 10.0703C75.4114 8.11953 73.8805 6.58859 71.9297 5.54532C70.1332 4.58451 68.3718 4 63.437 4Z" fill="#FF4B4B" stroke="white" stroke-width="4"/>
<path d="M31.588 16.972L30.306 17.1689C29.9035 17.2307 29.5271 16.9545 29.4652 16.552C29.4406 16.3917 29.4695 16.2277 29.5475 16.0855L30.171 14.9482C30.2303 14.84 30.2326 14.7095 30.1771 14.5993L29.5936 13.4409C29.4104 13.0772 29.5568 12.6338 29.9205 12.4506C30.0654 12.3777 30.2302 12.3545 30.3895 12.3847L31.6639 12.6262C31.7851 12.6492 31.9099 12.611 31.9976 12.5242L32.919 11.6114C33.2083 11.3247 33.6752 11.3269 33.9618 11.6162C34.076 11.7314 34.149 11.8811 34.1695 12.0419L34.3335 13.3285C34.3492 13.4509 34.424 13.5578 34.5337 13.6144L35.6866 14.2086C36.0486 14.3952 36.1908 14.8399 36.0042 15.2019C35.9299 15.3461 35.8102 15.4617 35.6635 15.5309L34.4906 16.0845C34.379 16.1372 34.3004 16.2415 34.2806 16.3633L34.0717 17.6433C34.0061 18.0453 33.6271 18.318 33.2252 18.2524C33.0651 18.2263 32.9181 18.1481 32.807 18.03L31.918 17.0856C31.8334 16.9957 31.71 16.9532 31.588 16.972Z" fill="#FFC300"/>
<path d="M40.6856 23.6875L39.7966 24.6319C39.5174 24.9284 39.0508 24.9426 38.7542 24.6634C38.6361 24.5523 38.558 24.4053 38.5318 24.2452L38.323 22.9652C38.3031 22.8433 38.2245 22.7391 38.1129 22.6864L36.94 22.1328C36.5717 21.959 36.4141 21.5195 36.5879 21.1512C36.6572 21.0045 36.7728 20.8848 36.9169 20.8105L38.0698 20.2163C38.1795 20.1597 38.2544 20.0528 38.27 19.9304L38.4341 18.6438C38.4856 18.2398 38.8549 17.9541 39.2588 18.0056C39.4197 18.0261 39.5693 18.0991 39.6845 18.2132L40.6059 19.1261C40.6936 19.2129 40.8184 19.2511 40.9397 19.2281L42.214 18.9866C42.6141 18.9107 43 19.1736 43.0758 19.5738C43.106 19.7331 43.0829 19.8979 43.0099 20.0428L42.4265 21.2012C42.371 21.3114 42.3732 21.4419 42.4326 21.5501L43.0561 22.6874C43.2518 23.0445 43.1211 23.4927 42.7639 23.6885C42.6217 23.7665 42.4578 23.7954 42.2975 23.7708L41.0155 23.5739C40.8935 23.5551 40.7701 23.5976 40.6856 23.6875Z" fill="#FFC300"/>
<path d="M31.588 39.6517L30.306 39.8486C29.9035 39.9104 29.5271 39.6342 29.4652 39.2317C29.4406 39.0714 29.4695 38.9074 29.5475 38.7652L30.171 37.6279C30.2303 37.5197 30.2326 37.3892 30.1771 37.279L29.5936 36.1206C29.4104 35.7569 29.5568 35.3135 29.9205 35.1303C30.0654 35.0573 30.2302 35.0342 30.3895 35.0644L31.6639 35.3059C31.7851 35.3289 31.9099 35.2907 31.9976 35.2039L32.919 34.291C33.2083 34.0044 33.6752 34.0066 33.9618 34.2959C34.076 34.4111 34.149 34.5607 34.1695 34.7216L34.3335 36.0082C34.3492 36.1306 34.424 36.2375 34.5337 36.2941L35.6866 36.8883C36.0486 37.0749 36.1908 37.5196 36.0042 37.8816C35.9299 38.0258 35.8102 38.1414 35.6635 38.2106L34.4906 38.7642C34.379 38.8169 34.3004 38.9212 34.2806 39.043L34.0717 40.323C34.0061 40.725 33.6271 40.9976 33.2252 40.9321C33.0651 40.9059 32.9181 40.8278 32.807 40.7097L31.918 39.7653C31.8334 39.6754 31.71 39.6329 31.588 39.6517Z" fill="#FFC300"/>
<path d="M39.8254 33.374L38.6774 33.9776C38.3169 34.1671 37.871 34.0285 37.6815 33.668C37.6061 33.5245 37.58 33.3601 37.6074 33.2002L37.8267 31.9219C37.8475 31.8003 37.8072 31.6761 37.7188 31.59L36.7901 30.6847C36.4984 30.4004 36.4925 29.9335 36.7767 29.6419C36.8899 29.5258 37.0383 29.4502 37.1988 29.4269L38.4823 29.2404C38.6044 29.2226 38.71 29.1459 38.7646 29.0352L39.3386 27.8722C39.5189 27.507 39.961 27.357 40.3262 27.5372C40.4717 27.609 40.5894 27.7267 40.6611 27.8722L41.2352 29.0352C41.2898 29.1459 41.3954 29.2226 41.5175 29.2404L42.801 29.4269C43.204 29.4854 43.4833 29.8596 43.4247 30.2626C43.4014 30.4231 43.3258 30.5715 43.2097 30.6847L42.2809 31.59C42.1926 31.6761 42.1522 31.8003 42.1731 31.9219L42.3923 33.2002C42.4612 33.6016 42.1916 33.9828 41.7902 34.0517C41.6304 34.0791 41.4659 34.0531 41.3224 33.9776L40.1744 33.374C40.0651 33.3166 39.9346 33.3166 39.8254 33.374Z" fill="#FFC300"/>
<path d="M21.6123 31.2037L19.0612 32.5449C18.2601 32.9661 17.2693 32.6581 16.8482 31.857C16.6805 31.538 16.6226 31.1727 16.6835 30.8175L17.1708 27.9767C17.2171 27.7064 17.1275 27.4306 16.9311 27.2391L14.8672 25.2273C14.2191 24.5956 14.2058 23.5581 14.8376 22.91C15.0891 22.652 15.4187 22.484 15.7754 22.4322L18.6276 22.0178C18.899 21.9783 19.1337 21.8078 19.2551 21.5619L20.5306 18.9773C20.9312 18.1657 21.9138 17.8325 22.7253 18.2331C23.0485 18.3926 23.3101 18.6541 23.4696 18.9773L24.7451 21.5619C24.8665 21.8078 25.1012 21.9783 25.3726 22.0178L28.2248 22.4322C29.1205 22.5624 29.741 23.3939 29.6109 24.2895C29.559 24.6461 29.3911 24.9757 29.133 25.2273L27.0691 27.2391C26.8727 27.4306 26.7831 27.7064 26.8294 27.9767L27.3167 30.8175C27.4697 31.7095 26.8706 32.5566 25.9786 32.7096C25.6234 32.7705 25.258 32.7126 24.939 32.5449L22.3879 31.2037C22.1451 31.0761 21.8551 31.0761 21.6123 31.2037Z" fill="#FFC300"/>
</svg>
