<svg width="82" height="66" viewBox="0 0 82 66" fill="none" xmlns="http://www.w3.org/2000/svg">
<path d="M63.437 4H18.563C13.6282 4 11.8668 4.58451 10.0703 5.54532C8.11953 6.58859 6.58859 8.11953 5.54532 10.0703C4.58451 11.8668 4 13.6282 4 18.563V47.437C4 52.3718 4.58451 54.1332 5.54532 55.9297C6.58859 57.8805 8.11953 59.4114 10.0703 60.4547C11.8668 61.4155 13.6282 62 18.563 62H63.437C68.3718 62 70.1332 61.4155 71.9297 60.4547C73.8805 59.4114 75.4114 57.8805 76.4547 55.9297C77.4155 54.1332 78 52.3718 78 47.437V18.563C78 13.6282 77.4155 11.8668 76.4547 10.0703C75.4114 8.11953 73.8805 6.58859 71.9297 5.54532C70.1332 4.58451 68.3718 4 63.437 4Z" fill="#FF4B4B" stroke="white" stroke-width="4"/>
<path d="M26.5013 27.2334C26.277 28.2522 26.1587 29.3109 26.1587 30.3972C26.1587 31.7398 26.3394 33.0402 26.6777 34.2755M31.8467 41.9847C34.3229 43.9015 37.4301 45.0423 40.8039 45.0423C44.6849 45.5601 47.9378 47.5206 50.5624 50.9236" stroke="#FFD300" stroke-width="2.64516" stroke-linecap="round" stroke-linejoin="round"/>
<path fill-rule="evenodd" clip-rule="evenodd" d="M28.8276 22.1104L28.8782 21.5319C29.1888 17.9823 32.318 15.3566 35.8676 15.6671L36.446 15.7178L36.3954 16.2962C36.0849 19.8458 32.9556 22.4715 29.4061 22.161L28.8276 22.1104Z" fill="#FFD300"/>
<path fill-rule="evenodd" clip-rule="evenodd" d="M25.467 29.2852L24.8654 28.7979C22.0963 26.5556 21.6693 22.493 23.9117 19.724L24.3989 19.1223L25.0005 19.6095C27.7696 21.8519 28.1966 25.9144 25.9543 28.6835L25.467 29.2852Z" fill="#FFD300"/>
<path fill-rule="evenodd" clip-rule="evenodd" d="M31.8726 42.9751L31.1363 43.2143C27.7475 44.3154 24.1078 42.4609 23.0067 39.0721L22.7675 38.3358L23.5038 38.0966C26.8925 36.9955 30.5323 38.8501 31.6333 42.2388L31.8726 42.9751Z" fill="#FFD300"/>
<path fill-rule="evenodd" clip-rule="evenodd" d="M32.9778 42.8862L33.3412 42.2027C35.014 39.0566 33.8197 35.1502 30.6737 33.4774L29.9901 33.1139L29.6266 33.7975C27.9538 36.9435 29.1482 40.85 32.2942 42.5228L32.9778 42.8862Z" fill="#FFD300"/>
<path fill-rule="evenodd" clip-rule="evenodd" d="M25.0459 30.5688L25.1536 29.8022C25.6495 26.2737 28.9119 23.8154 32.4404 24.3113L33.207 24.419L33.0993 25.1857C32.6034 28.7141 29.341 31.1725 25.8126 30.6766L25.0459 30.5688Z" fill="#FFD300"/>
<path d="M55.4987 27.2334C55.723 28.2522 55.8413 29.3109 55.8413 30.3972C55.8413 31.7398 55.6606 33.0402 55.3223 34.2755M50.1533 41.9847C47.6771 43.9015 44.5699 45.0423 41.1961 45.0423C37.3151 45.5601 34.0622 47.5206 31.4376 50.9236" stroke="#FFD300" stroke-width="2.64516" stroke-linecap="round" stroke-linejoin="round"/>
<path fill-rule="evenodd" clip-rule="evenodd" d="M53.1724 22.1104L53.1218 21.5319C52.8112 17.9823 49.682 15.3566 46.1324 15.6671L45.554 15.7178L45.6046 16.2962C45.9151 19.8458 49.0444 22.4715 52.5939 22.161L53.1724 22.1104Z" fill="#FFD300"/>
<path fill-rule="evenodd" clip-rule="evenodd" d="M56.533 29.2852L57.1346 28.7979C59.9037 26.5556 60.3307 22.493 58.0883 19.724L57.6011 19.1223L56.9995 19.6095C54.2304 21.8519 53.8034 25.9144 56.0457 28.6835L56.533 29.2852Z" fill="#FFD300"/>
<path fill-rule="evenodd" clip-rule="evenodd" d="M50.1274 42.9751L50.8637 43.2143C54.2525 44.3154 57.8922 42.4609 58.9933 39.0721L59.2325 38.3358L58.4962 38.0966C55.1075 36.9955 51.4677 38.8501 50.3667 42.2388L50.1274 42.9751Z" fill="#FFD300"/>
<path fill-rule="evenodd" clip-rule="evenodd" d="M49.0222 42.8862L48.6588 42.2027C46.986 39.0566 48.1803 35.1502 51.3263 33.4774L52.0099 33.1139L52.3734 33.7975C54.0462 36.9435 52.8518 40.85 49.7058 42.5228L49.0222 42.8862Z" fill="#FFD300"/>
<path fill-rule="evenodd" clip-rule="evenodd" d="M56.9541 30.5688L56.8464 29.8022C56.3505 26.2737 53.0881 23.8154 49.5596 24.3113L48.793 24.419L48.9007 25.1857C49.3966 28.7141 52.659 31.1725 56.1874 30.6766L56.9541 30.5688Z" fill="#FFD300"/>
</svg>
