<svg width="82" height="66" viewBox="0 0 82 66" fill="none" xmlns="http://www.w3.org/2000/svg">
<path d="M63.437 4H18.563C13.6282 4 11.8668 4.58451 10.0703 5.54532C8.11953 6.58859 6.58859 8.11953 5.54532 10.0703C4.58451 11.8668 4 13.6282 4 18.563V47.437C4 52.3718 4.58451 54.1332 5.54532 55.9297C6.58859 57.8805 8.11953 59.4114 10.0703 60.4547C11.8668 61.4155 13.6282 62 18.563 62H63.437C68.3718 62 70.1332 61.4155 71.9297 60.4547C73.8805 59.4114 75.4114 57.8805 76.4547 55.9297C77.4155 54.1332 78 52.3718 78 47.437V18.563C78 13.6282 77.4155 11.8668 76.4547 10.0703C75.4114 8.11953 73.8805 6.58859 71.9297 5.54532C70.1332 4.58451 68.3718 4 63.437 4Z" fill="#FFCE8E" stroke="white" stroke-width="4"/>
<path d="M39.9615 18.9788L39.3974 27.6615C39.3576 28.2738 38.8289 28.738 38.2166 28.6982C38.2104 28.6978 38.2042 28.6973 38.1981 28.6968L36.2991 28.5416C35.6875 28.4915 35.1511 28.9468 35.1011 29.5584C35.0786 29.8343 35.1598 30.1086 35.3288 30.3277L36.5099 31.8584C36.8506 32.2999 36.8112 32.9255 36.4178 33.3209L35.0315 34.7141C34.5987 35.1491 34.6004 35.8526 35.0354 36.2854C35.2355 36.4846 35.5039 36.6001 35.7861 36.6084L37.8404 36.6695C38.2539 36.6818 38.6262 36.9227 38.8069 37.2947L40.0185 39.7897C40.2866 40.3417 40.9514 40.5719 41.5034 40.3038C41.7227 40.1973 41.9009 40.0217 42.0105 39.8039L43.2705 37.301C43.4593 36.926 43.8432 36.6895 44.263 36.6895H46.0141C46.6278 36.6895 47.1252 36.192 47.1252 35.5783C47.1252 35.3171 47.0331 35.0642 46.8652 34.864L45.5086 33.2477C45.1994 32.8793 45.1624 32.3538 45.4168 31.9456L46.4821 30.2368C46.8068 29.7161 46.6478 29.0308 46.1271 28.7061C45.9211 28.5777 45.6787 28.5203 45.437 28.5426L43.8795 28.6865C43.2685 28.743 42.7273 28.2934 42.6709 27.6823L42.6707 27.6802L41.8863 19.0056C41.856 18.6713 41.9785 18.3414 42.2194 18.1078L45.3411 15.0814C46.002 14.4407 47.0572 14.457 47.6979 15.1179C47.8598 15.2849 47.985 15.484 48.0653 15.7023L49.3808 19.2762C49.6132 19.9077 50.2027 20.3375 50.8751 20.3657L55.0835 20.5419C56.0032 20.5804 56.7175 21.3571 56.679 22.2768C56.6737 22.4038 56.6539 22.5297 56.6199 22.6522L55.4753 26.7823C55.2971 27.4254 55.5197 28.1128 56.041 28.5294L59.3708 31.1902C60.0899 31.7649 60.207 32.8136 59.6323 33.5327C59.5551 33.6293 59.4674 33.7171 59.3708 33.7943L56.041 36.4551C55.5197 36.8717 55.2971 37.5591 55.4753 38.2022L56.6199 42.3323C56.8658 43.2193 56.346 44.1377 55.4589 44.3836C55.3365 44.4175 55.2105 44.4373 55.0835 44.4426L50.8751 44.6188C50.2027 44.647 49.6132 45.0768 49.3808 45.7083L47.9128 49.6967C47.5948 50.5605 46.6368 51.003 45.773 50.6851C45.6486 50.6393 45.5301 50.5788 45.42 50.505L41.9288 48.1622C41.3671 47.7852 40.6332 47.7852 40.0714 48.1622L36.5802 50.505C35.8159 51.0179 34.7805 50.814 34.2676 50.0497C34.1937 49.9396 34.1332 49.8211 34.0875 49.6967L32.6194 45.7083C32.387 45.0768 31.7975 44.647 31.1251 44.6188L26.9167 44.4426C25.997 44.4041 25.2827 43.6274 25.3212 42.7077C25.3265 42.5807 25.3464 42.4548 25.3803 42.3323L26.5249 38.2022C26.7031 37.5591 26.4806 36.8717 25.9592 36.4551L22.6295 33.7943C21.9104 33.2197 21.7933 32.1709 22.3679 31.4518C22.4451 31.3552 22.5328 31.2675 22.6295 31.1902L25.9592 28.5294C26.4806 28.1128 26.7031 27.4254 26.5249 26.7823L25.3803 22.6522C25.1345 21.7652 25.6543 20.8468 26.5413 20.601C26.6638 20.567 26.7897 20.5472 26.9167 20.5419L31.1251 20.3657C31.7975 20.3375 32.387 19.9077 32.6194 19.2762L33.9193 15.7447C34.2372 14.8809 35.1952 14.4384 36.0591 14.7564C36.2858 14.8398 36.4916 14.9715 36.6624 15.1424L39.6388 18.1214C39.8646 18.3475 39.9822 18.6599 39.9615 18.9788Z" fill="#4B4B4B"/>
<path d="M27.5 33.0604C27.5 26.853 31.6679 21.4323 37.5961 19.8811C38.057 19.7605 38.5064 20.1114 38.5011 20.5878L38.4623 24.1198C38.459 24.4191 38.2715 24.6853 37.9908 24.7892C34.5731 26.0542 32.2778 29.3599 32.2778 33.0604C32.2778 37.9264 36.1843 41.8685 41 41.8685C45.8157 41.8685 49.7222 37.9264 49.7222 33.0604C49.7222 29.3498 47.4145 26.0373 43.9835 24.7797C43.7009 24.6762 43.5122 24.4082 43.5099 24.1072L43.4828 20.5812C43.4791 20.1062 43.9272 19.7571 44.3869 19.8767C50.3234 21.4217 54.5 26.8465 54.5 33.0604C54.5 40.5789 48.4573 46.6765 41 46.6765C33.5427 46.6765 27.5 40.5789 27.5 33.0604Z" fill="#FF4B4B"/>
</svg>
