<svg width="82" height="66" viewBox="0 0 82 66" fill="none" xmlns="http://www.w3.org/2000/svg">
<path d="M63.437 4H18.563C13.6282 4 11.8668 4.58451 10.0703 5.54532C8.11953 6.58859 6.58859 8.11953 5.54532 10.0703C4.58451 11.8668 4 13.6282 4 18.563V47.437C4 52.3718 4.58451 54.1332 5.54532 55.9297C6.58859 57.8805 8.11953 59.4114 10.0703 60.4547C11.8668 61.4155 13.6282 62 18.563 62H63.437C68.3718 62 70.1332 61.4155 71.9297 60.4547C73.8805 59.4114 75.4114 57.8805 76.4547 55.9297C77.4155 54.1332 78 52.3718 78 47.437V18.563C78 13.6282 77.4155 11.8668 76.4547 10.0703C75.4114 8.11953 73.8805 6.58859 71.9297 5.54532C70.1332 4.58451 68.3718 4 63.437 4Z" fill="#78C800" stroke="white" stroke-width="4"/>
<path fill-rule="evenodd" clip-rule="evenodd" d="M12.1118 32.3786L39.8219 12.1825C40.5239 11.6708 41.4759 11.6708 42.1779 12.1825L69.888 32.3786C70.7807 33.0292 70.9769 34.2803 70.3263 35.1729C70.2027 35.3425 70.0532 35.4916 69.8832 35.6147L42.1731 55.6841C41.4731 56.191 40.5267 56.191 39.8268 55.6841L12.1167 35.6147C11.2221 34.9668 11.0221 33.7163 11.67 32.8218C11.7931 32.6518 11.9422 32.5023 12.1118 32.3786Z" fill="#FFC800"/>
<path d="M41 46C47.6274 46 53 40.6274 53 34C53 27.3726 47.6274 22 41 22C34.3726 22 29 27.3726 29 34C29 40.6274 34.3726 46 41 46Z" fill="#1CB0F6"/>
<path fill-rule="evenodd" clip-rule="evenodd" d="M29.0256 33.2095C29.1259 31.667 29.5176 30.204 30.1462 28.875L52.9867 34.5698C52.9144 36.1158 52.5496 37.5853 51.9463 38.9242L29.0256 33.2095Z" fill="white"/>
</svg>
