<svg width="82" height="66" viewBox="0 0 82 66" fill="none" xmlns="http://www.w3.org/2000/svg">
<path d="M18.563 6H63.437C67.8054 6 69.3895 6.45485 70.9865 7.30895C72.5836 8.16306 73.8369 9.41642 74.691 11.0135C75.5452 12.6105 76 14.1946 76 18.563V47.437C76 51.8054 75.5452 53.3895 74.691 54.9865C73.8369 56.5836 72.5836 57.8369 70.9865 58.6911C69.3895 59.5452 67.8054 60 63.437 60H18.563C14.1946 60 12.6105 59.5452 11.0135 58.6911C9.41642 57.8369 8.16306 56.5836 7.30895 54.9865C6.45485 53.3895 6 51.8054 6 47.437V18.563C6 14.1946 6.45485 12.6105 7.30895 11.0135C8.16306 9.41642 9.41642 8.16306 11.0135 7.30895C12.6105 6.45485 14.1946 6 18.563 6Z" fill="#EEEEEE"/>
<path d="M63.437 4H18.563C13.6282 4 11.8668 4.58451 10.0703 5.54532C8.11953 6.58859 6.58859 8.11953 5.54532 10.0703C4.58451 11.8668 4 13.6282 4 18.563V47.437C4 52.3718 4.58451 54.1332 5.54532 55.9297C6.58859 57.8805 8.11953 59.4114 10.0703 60.4547C11.8668 61.4155 13.6282 62 18.563 62H63.437C68.3718 62 70.1332 61.4155 71.9297 60.4547C73.8805 59.4114 75.4114 57.8805 76.4547 55.9297C77.4155 54.1332 78 52.3718 78 47.437V18.563C78 13.6282 77.4155 11.8668 76.4547 10.0703C75.4114 8.11953 73.8805 6.58859 71.9297 5.54532C70.1332 4.58451 68.3718 4 63.437 4Z" fill="#EEEEEE" stroke="white" stroke-width="4"/>
<path d="M75.7115 52C75.4917 53.2787 75.1486 54.1308 74.691 54.9865C73.8369 56.5836 72.5835 57.8369 70.9865 58.6911C69.3894 59.5452 67.8053 60 63.4369 60H18.563C14.1945 60 12.6104 59.5452 11.0134 58.6911C9.41633 57.8369 8.16297 56.5836 7.30887 54.9865C6.8512 54.1308 6.50817 53.2787 6.28833 52H75.7115Z" fill="#FF4B4B"/>
<path fill-rule="evenodd" clip-rule="evenodd" d="M76 22V44H6V22H76Z" fill="#1CB0F6"/>
<path d="M18.563 6H63.4369C67.8053 6 69.3894 6.45485 70.9865 7.30895C72.5835 8.16306 73.8369 9.41642 74.691 11.0135C75.1486 11.8692 75.4917 12.7213 75.7115 14H6.28833C6.50817 12.7213 6.8512 11.8692 7.30887 11.0135C8.16297 9.41642 9.41633 8.16306 11.0134 7.30895C12.6104 6.45485 14.1945 6 18.563 6Z" fill="#FF4B4B"/>
</svg>
