<svg width="82" height="66" viewBox="0 0 82 66" fill="none" xmlns="http://www.w3.org/2000/svg">
<path d="M63.437 4H18.563C13.6282 4 11.8668 4.58451 10.0703 5.54532C8.11953 6.58859 6.58859 8.11953 5.54532 10.0703C4.58451 11.8668 4 13.6282 4 18.563V47.437C4 52.3718 4.58451 54.1332 5.54532 55.9297C6.58859 57.8805 8.11953 59.4114 10.0703 60.4547C11.8668 61.4155 13.6282 62 18.563 62H63.437C68.3718 62 70.1332 61.4155 71.9297 60.4547C73.8805 59.4114 75.4114 57.8805 76.4547 55.9297C77.4155 54.1332 78 52.3718 78 47.437V18.563C78 13.6282 77.4155 11.8668 76.4547 10.0703C75.4114 8.11953 73.8805 6.58859 71.9297 5.54532C70.1332 4.58451 68.3718 4 63.437 4Z" fill="#FF4B4B" stroke="white" stroke-width="4"/>
<path d="M40.5347 40.7449L36.5916 42.8179C35.3901 43.4496 33.9039 42.9876 33.2722 41.786C33.0206 41.3075 32.9338 40.7595 33.0252 40.2267L33.7782 35.836C33.8339 35.5116 33.7263 35.1806 33.4906 34.9509L30.3006 31.8414C29.3285 30.8939 29.3086 29.3377 30.2562 28.3656C30.6335 27.9785 31.128 27.7265 31.6629 27.6488L36.0714 27.0082C36.3971 26.9609 36.6787 26.7563 36.8243 26.4612L38.7958 22.4664C39.3966 21.2491 40.8705 20.7493 42.0879 21.3501C42.5726 21.5893 42.965 21.9817 43.2042 22.4664L45.1758 26.4612C45.3214 26.7563 45.603 26.9609 45.9287 27.0082L50.3372 27.6488C51.6806 27.844 52.6114 29.0913 52.4162 30.4347C52.3384 30.9697 52.0865 31.4641 51.6994 31.8414L48.5094 34.9509C48.2737 35.1806 48.1662 35.5116 48.2218 35.836L48.9749 40.2267C49.2044 41.5647 48.3057 42.8354 46.9678 43.0649C46.435 43.1562 45.8869 43.0694 45.4084 42.8179L41.4654 40.7449C41.174 40.5917 40.826 40.5917 40.5347 40.7449Z" fill="#FFC300"/>
</svg>
