<svg width="82" height="66" viewBox="0 0 82 66" fill="none" xmlns="http://www.w3.org/2000/svg">
<path d="M63.437 4H18.563C13.6282 4 11.8668 4.58451 10.0703 5.54532C8.11953 6.58859 6.58859 8.11953 5.54532 10.0703C4.58451 11.8668 4 13.6282 4 18.563V47.437C4 52.3718 4.58451 54.1332 5.54532 55.9297C6.58859 57.8805 8.11953 59.4114 10.0703 60.4547C11.8668 61.4155 13.6282 62 18.563 62H63.437C68.3718 62 70.1332 61.4155 71.9297 60.4547C73.8805 59.4114 75.4114 57.8805 76.4547 55.9297C77.4155 54.1332 78 52.3718 78 47.437V18.563C78 13.6282 77.4155 11.8668 76.4547 10.0703C75.4114 8.11953 73.8805 6.58859 71.9297 5.54532C70.1332 4.58451 68.3718 4 63.437 4Z" fill="#EEEEEE" stroke="white" stroke-width="4"/>
<path d="M76 33V47.437C76 51.8054 75.5452 53.3895 74.691 54.9865C73.8369 56.5836 72.5836 57.8369 70.9865 58.6911C69.3895 59.5452 67.8054 60 63.437 60H18.563C14.1946 60 12.6105 59.5452 11.0135 58.6911C9.41642 57.8369 8.16306 56.5836 7.30895 54.9865C6.45485 53.3895 6 51.8054 6 47.437L6 33H76Z" fill="#7AC70C"/>
<path d="M43.1788 20H56.9492C58.0538 20 58.9492 20.8954 58.9492 22C58.9492 22.2744 58.8928 22.546 58.7833 22.7976L55.2161 31C52.3111 37.6796 45.7209 42 38.4369 42H33C29.134 42 26 38.866 26 35V30L36 26V26.4106C36 27.2884 36.7116 28 37.5894 28C38.4672 28 39.1788 27.2884 39.1788 26.4106V24C39.1788 21.7909 40.9697 20 43.1788 20Z" fill="#FF4B4B"/>
<path d="M29 18H33C34.6569 18 36 19.3431 36 21V30H26V21C26 19.3431 27.3431 18 29 18Z" fill="#FF4B4B"/>
<path d="M24 21H29V26H19C19 23.2386 21.2386 21 24 21Z" fill="#FF4B4B"/>
<path d="M29 18H39C39 20.2091 37.2091 22 35 22H29V18Z" fill="#FF4B4B"/>
<path d="M25 28C23.3431 28 22 26.2091 22 24H32V28H25Z" fill="#FF4B4B"/>
<path d="M37 41.9082V36.9082H56.5C57.8807 36.9082 59 35.7889 59 34.4082V31H64V34.4082C64 38.5503 60.6421 41.9082 56.5 41.9082H37Z" fill="#FF4B4B"/>
<path d="M62.3213 27.0537L66.2839 32.7603C66.5989 33.2139 66.4865 33.837 66.0329 34.152C65.7775 34.3294 65.4541 34.3778 65.1579 34.2831L61.4999 33.1133L57.842 34.2831C57.3159 34.4513 56.7531 34.1613 56.5849 33.6352C56.4902 33.3391 56.5386 33.0157 56.716 32.7603L60.6785 27.0537C60.9936 26.6001 61.6167 26.4877 62.0703 26.8027C62.1683 26.8708 62.2533 26.9558 62.3213 27.0537Z" fill="#FF4B4B"/>
<path d="M32 44H35C37.2091 44 39 45.7909 39 48C39 48.5523 38.5523 49 38 49H29C28.4477 49 28 48.5523 28 48C28 45.7909 29.7909 44 32 44Z" fill="#FF4B4B"/>
<path d="M39 38H34V48H39V38Z" fill="#FF4B4B"/>
<path d="M23.9658 37.8589V39.8589C23.9658 42.068 22.175 43.8589 19.9658 43.8589C19.4135 43.8589 18.9658 43.4112 18.9658 42.8589V34.8589C18.9658 34.3066 19.4135 33.8589 19.9658 33.8589C22.175 33.8589 23.9658 35.6497 23.9658 37.8589Z" fill="#FF4B4B"/>
<path d="M34.9091 39.9053L33.615 35.0757L19.1261 38.958L20.4202 43.7876L34.9091 39.9053Z" fill="#FF4B4B"/>
<path d="M48 44H52C54.2091 44 56 45.7909 56 48C56 48.5523 55.5523 49 55 49H45C44.4477 49 44 48.5523 44 48C44 45.7909 45.7909 44 48 44Z" fill="#FF4B4B"/>
<path d="M50.3301 37L46 39.5L51 48.1603L55.3301 45.6603L50.3301 37Z" fill="#FF4B4B"/>
</svg>
