<svg width="200" height="234" viewBox="0 0 200 234" fill="none" xmlns="http://www.w3.org/2000/svg">
<path opacity="0.3" fill-rule="evenodd" clip-rule="evenodd" d="M26.4861 222.281H174.108C177.157 222.281 179.552 224.678 179.552 227.728C179.552 230.779 177.157 233.176 174.108 233.176H26.4861C23.4381 233.176 21.043 230.779 21.043 227.728C21.043 224.678 23.6561 222.281 26.4861 222.281Z" fill="#AFAFAF"/>
<path fill-rule="evenodd" clip-rule="evenodd" d="M45.2111 213.129C45.2111 208.117 49.348 203.977 54.356 203.977H68.5081C73.5161 203.977 77.653 208.117 77.653 213.129C77.653 218.14 73.5161 222.281 68.5081 222.281H54.356C49.348 222.281 45.2111 218.14 45.2111 213.129Z" fill="#F49000"/>
<path fill-rule="evenodd" clip-rule="evenodd" d="M122.724 213.129C122.724 208.117 126.861 203.977 131.868 203.977H146.021C151.029 203.977 155.166 208.117 155.166 213.129C155.166 218.14 151.029 222.281 146.021 222.281H131.868C126.643 222.281 122.724 218.14 122.724 213.129Z" fill="#F49000"/>
<path fill-rule="evenodd" clip-rule="evenodd" d="M163.657 151.461C167.576 151.461 170.842 154.73 170.842 158.652V184.365C170.842 188.287 167.576 191.556 163.657 191.556C159.738 191.556 156.472 188.287 156.472 184.365V158.652C156.472 154.73 159.738 151.461 163.657 151.461Z" fill="#43C000"/>
<path fill-rule="evenodd" clip-rule="evenodd" d="M165.399 182.186V105.918L193.704 130.76C200.889 137.079 201.76 148.192 195.228 155.601C194.793 156.255 194.14 156.691 193.704 157.126L165.399 182.186Z" fill="#43C000"/>
<path fill-rule="evenodd" clip-rule="evenodd" d="M35.849 151.461C39.768 151.461 43.034 154.73 43.034 158.652V184.365C43.034 188.287 39.768 191.556 35.849 191.556C31.93 191.556 28.664 188.287 28.664 184.365V158.652C28.881 154.73 31.93 151.461 35.849 151.461Z" fill="#43C000"/>
<path fill-rule="evenodd" clip-rule="evenodd" d="M6.02004 157.126C5.36604 156.691 4.93104 156.037 4.49504 155.601C-2.03696 148.41 -1.38296 137.297 6.02004 130.76L34.325 105.918V182.186L6.02004 157.126Z" fill="#43C000"/>
<path fill-rule="evenodd" clip-rule="evenodd" d="M62.63 52.3136C80.919 59.9403 93.33 63.8626 100.08 63.8626C106.829 63.8626 119.022 60.1582 137.094 52.5315C149.069 47.5196 162.786 52.9673 168.012 64.9521C169.318 67.7849 169.972 71.0535 169.972 74.1042V146.667C169.972 185.237 138.618 216.615 100.08 216.615C61.541 216.615 29.97 185.454 29.97 146.667V74.1042C29.97 61.0298 40.421 50.5703 53.485 50.5703C56.533 50.5703 59.799 51.0061 62.63 52.3136Z" fill="#58CC02"/>
<path d="M94.636 169.111C94.854 168.24 94.201 167.368 93.33 167.368H75.694C74.823 167.368 74.1701 168.24 74.3871 169.111C75.6941 173.252 79.831 176.084 84.403 176.084C89.193 175.867 93.33 173.034 94.636 169.111ZM124.03 167.368H106.394C105.523 167.368 104.87 168.24 105.087 169.111C106.394 173.252 110.531 176.084 115.103 176.084C119.676 176.084 123.812 173.252 125.337 169.111C125.772 168.24 125.119 167.368 124.03 167.368ZM108.789 182.186H91.153C90.282 182.186 89.629 183.057 89.846 183.929C91.153 188.069 95.29 190.902 99.862 190.902C104.434 190.902 108.571 188.069 110.095 183.929C110.313 183.057 109.66 182.186 108.789 182.186Z" fill="#89E219"/>
<path d="M109.224 128.363C105.741 128.363 99.862 128.363 91.588 128.363C87.669 137.733 78.306 144.27 67.42 144.27H65.243C50.872 144.27 39.1151 132.503 39.1151 118.122V101.343C39.1151 91.3191 44.776 82.8207 52.832 78.2447C53.05 75.6298 53.9211 73.0149 55.2271 70.6179C56.0981 69.0926 58.0571 69.0926 59.1461 70.1821L63.718 75.194C63.718 75.194 63.718 75.194 63.936 75.194C63.718 71.7075 64.5891 68.221 66.3311 65.1703C67.2021 63.6449 68.726 63.6449 69.815 64.7345L89.411 85.8714C95.507 90.2295 104.217 90.2295 110.313 86.0893L129.473 64.7345C130.562 63.427 132.522 63.6449 133.393 65.1703C135.134 68.221 135.788 71.4896 135.788 74.7582L139.707 70.4C140.795 69.0926 142.755 69.3105 143.626 70.8359C144.715 72.797 145.586 75.194 145.803 77.373C154.73 81.5133 160.827 90.6654 160.827 101.125V117.686C160.827 132.068 149.069 143.835 134.699 143.835H132.739C122.288 143.835 113.144 137.515 109.224 128.363Z" fill="#89E219"/>
<path fill-rule="evenodd" clip-rule="evenodd" d="M133.61 85C144.279 85 152.771 93.4984 152.771 104.176V115.725C152.771 126.402 144.279 134.901 133.61 134.901C122.942 134.901 114.45 126.402 114.45 115.725V104.176C114.45 93.7163 122.942 85 133.61 85Z" fill="white"/>
<path fill-rule="evenodd" clip-rule="evenodd" d="M130.562 96.1133C135.57 96.1133 139.707 100.254 139.707 105.047V115.071C139.707 120.083 135.57 124.005 130.78 124.005C125.772 124.005 121.853 119.865 121.853 115.071V105.047C121.635 100.036 125.554 96.1133 130.562 96.1133Z" fill="#122431"/>
<path fill-rule="evenodd" clip-rule="evenodd" d="M65.4601 85C76.1291 85 84.621 93.4984 84.621 104.176V115.725C84.621 126.402 76.1291 134.901 65.4601 134.901C54.7911 134.901 46.3 126.402 46.3 115.725V104.176C46.3 93.7163 55.0091 85 65.4601 85Z" fill="white"/>
<path fill-rule="evenodd" clip-rule="evenodd" d="M68.5091 96.1133C73.5161 96.1133 77.6531 100.254 77.6531 105.047V115.071C77.6531 120.083 73.5161 124.005 68.7261 124.005C63.7181 124.005 59.7991 119.865 59.7991 115.071V105.047C59.5821 100.036 63.5011 96.1133 68.5091 96.1133Z" fill="#122431"/>
<path d="M155.383 131.196C146.021 133.593 137.747 137.298 130.126 142.527L124.248 133.811C132.739 127.928 142.319 123.787 152.771 120.955L155.383 131.196Z" fill="#89E219"/>
<path d="M42.816 131.196L45.429 121.172C55.88 123.787 65.4601 128.145 73.9521 134.029L68.0731 142.745C60.4521 137.515 52.179 133.593 42.816 131.196Z" fill="#89E219"/>
<path fill-rule="evenodd" clip-rule="evenodd" d="M59.582 79.5522H63.936C75.694 79.5522 85.274 89.1401 85.274 100.907V113.546L42.381 96.549C42.598 87.179 50.219 79.5522 59.582 79.5522Z" fill="#89E219"/>
<path d="M40.2031 95.8952L43.9051 88.4863C69.3791 101.125 88.3221 107.226 100.297 107.226C112.055 107.226 128.82 101.125 150.376 88.4863L154.513 95.6773C131.651 108.97 113.797 115.507 100.08 115.507C86.5801 115.507 66.7671 108.97 40.2031 95.8952Z" fill="#89E219"/>
<path fill-rule="evenodd" clip-rule="evenodd" d="M134.263 79.5522C143.626 79.5522 151.247 87.179 151.247 96.549L108.353 113.546V100.907C108.353 89.1401 117.934 79.5522 129.691 79.5522H134.263Z" fill="#89E219"/>
<path fill-rule="evenodd" clip-rule="evenodd" d="M100.297 117.468C106.611 117.468 111.619 122.48 111.619 128.799C111.619 135.118 106.611 140.13 100.297 140.13C93.9831 140.13 88.975 135.118 88.975 128.799C88.975 122.48 94.2011 117.468 100.297 117.468Z" fill="#F49000"/>
<path d="M86.362 128.581C87.451 122.262 93.33 117.468 100.515 117.468C106.829 117.468 112.708 122.262 113.797 128.581V131.632C112.055 129.017 109.66 127.927 106.611 128.581C103.781 129.235 101.386 131.196 100.08 134.464L86.362 131.632V128.581Z" fill="#FFC200"/>
<path d="M96.8131 123.787C95.9431 123.787 95.2891 123.351 95.0721 122.48C94.6361 121.39 95.2891 120.3 96.1601 119.865C98.5551 118.993 101.168 118.993 103.563 119.865C104.652 120.3 105.087 121.39 104.652 122.48C104.216 123.569 103.128 124.005 102.039 123.569C100.515 122.915 98.9911 122.915 97.2491 123.569C97.2491 123.787 97.0311 123.787 96.8131 123.787Z" fill="#FFDE00"/>
<path opacity="0.3" d="M109.878 13.9621C108.789 8.07866 105.088 -0.419697 101.822 0.016116C100.733 0.016116 99.644 1.10565 99.644 2.41309C99.644 13.3084 97.249 16.577 94.419 20.4993C92.895 22.4605 91.37 24.8575 90.064 28.1261C87.016 35.5349 90.717 42.5079 100.733 48.6093C101.168 48.8272 101.386 49.0451 101.822 49.0451C102.257 49.0451 102.692 48.8272 103.128 48.6093C103.781 48.1735 104.217 47.3018 103.999 46.4302C102.91 41.4184 102.475 36.8423 102.475 33.3558C102.475 30.7409 104.217 27.9082 105.958 25.2933C108.354 21.5889 110.531 17.8845 109.878 13.9621Z" fill="#AFAFAF"/>
</svg>
