<svg width="61" height="76" viewBox="0 0 61 76" fill="none" xmlns="http://www.w3.org/2000/svg">
<mask id="mask0_782_4256" style="mask-type:luminance" maskUnits="userSpaceOnUse" x="0" y="0" width="61" height="76">
<path d="M61 0.507812H0.800781V75.0202H61V0.507812Z" fill="white"/>
</mask>
<g mask="url(#mask0_782_4256)">
<path opacity="0.3" fill-rule="evenodd" clip-rule="evenodd" d="M58.4477 71.4697H19.0534C18.0902 71.4697 17.2715 72.2375 17.2715 73.2451C17.2715 74.2049 18.042 75.0205 19.0534 75.0205H58.4477C59.4109 75.0205 60.2297 74.2528 60.2297 73.2451C60.2297 72.2375 59.4109 71.4697 58.4477 71.4697Z" fill="#AFAFAF"/>
<path fill-rule="evenodd" clip-rule="evenodd" d="M37.596 68.543C37.596 66.9597 36.296 65.6162 34.6585 65.6162H29.9869C28.3977 65.6162 27.0491 66.9117 27.0491 68.543C27.0491 70.1264 28.3494 71.4699 29.9869 71.4699H34.6585C36.296 71.4699 37.596 70.1743 37.596 68.543Z" fill="#F49000"/>
<path fill-rule="evenodd" clip-rule="evenodd" d="M53.3928 69.8383C54.1153 68.399 53.5372 66.6719 52.1407 65.9521L49.2994 64.5128C47.8546 63.793 46.1209 64.3687 45.3983 65.7601C44.6761 67.1997 45.2539 68.9268 46.6507 69.6466L49.4921 71.0859C50.9369 71.8536 52.6706 71.2779 53.3928 69.8383Z" fill="#F49000"/>
<path fill-rule="evenodd" clip-rule="evenodd" d="M55.271 68.5908C55.271 67.0074 53.9707 65.7119 52.3814 65.7119H51.4665C49.8773 65.7119 48.5769 67.0074 48.5769 68.5908C48.5769 70.1742 49.8773 71.4697 51.4665 71.4697H52.3814C53.9707 71.4697 55.271 70.1742 55.271 68.5908Z" fill="#F49000"/>
<path d="M31.4296 36.9241L49.2001 2.18691C50.1633 0.315703 52.6679 -0.0681283 54.1606 1.41924C61.2884 8.52023 63.07 19.5555 58.3988 28.7197C53.7272 37.8839 43.6619 42.9216 33.6928 41.3382C31.6219 41.0024 30.4664 38.7954 31.4296 36.9241Z" fill="#58CC02"/>
<path d="M3.68998 62.4973L11.3955 26.4166C11.8289 24.4975 13.9959 23.5381 15.73 24.4975C24.0133 29.2476 28.3477 38.8913 26.3248 48.3913C24.3022 57.8912 16.3077 65.0404 6.82034 65.9998C4.84579 66.1918 3.25654 64.4647 3.68998 62.4973Z" fill="#58CC02"/>
<path fill-rule="evenodd" clip-rule="evenodd" d="M29.5039 7.94485C25.3139 12.7428 22.2316 15.6214 20.2573 16.5812C18.3309 17.5409 14.1892 18.1645 7.92836 18.4524C3.78667 18.6444 0.608154 22.1949 0.800794 26.369C0.848954 27.3766 1.08972 28.3843 1.57132 29.2958L11.7811 50.119C17.2233 61.2503 30.7077 65.8563 41.9289 60.4346C53.1019 55.0129 57.7252 41.6264 52.2831 30.5434V30.4951L41.9772 9.57615C40.147 5.83374 35.6199 4.29838 31.8636 6.1216C30.9966 6.55342 30.1782 7.17715 29.5039 7.94485Z" fill="#58CC02"/>
<path d="M42.4114 43.3538C42.3631 43.0659 42.0742 42.9218 41.7854 43.018L36.7284 45.4649C36.4395 45.6087 36.3916 45.9445 36.5839 46.1365C37.5954 47.1442 39.1364 47.3841 40.485 46.7601C41.8333 46.1365 42.6041 44.7451 42.4114 43.3538ZM32.9721 47.432L27.9155 49.879C27.6263 50.0227 27.5783 50.3588 27.7707 50.5505C28.7822 51.5582 30.3235 51.7981 31.6718 51.1745C33.0204 50.5026 33.7909 49.1112 33.5982 47.7199C33.5499 47.4799 33.2127 47.3358 32.9721 47.432ZM39.5218 49.5432L34.4652 51.9901C34.1759 52.1339 34.128 52.4697 34.3204 52.6617C35.3319 53.6694 36.8732 53.9093 38.2214 53.2853C39.5701 52.6138 40.3406 51.2224 40.1478 49.831C40.0996 49.5911 39.7624 49.3991 39.5218 49.5432Z" fill="#89E219"/>
<path d="M28.8776 12.6466L26.0362 22.1947C25.8918 22.7225 26.2769 23.202 26.8067 23.202C29.3592 23.1062 31.5744 21.379 32.297 18.8842C33.0192 16.389 32.056 13.7022 29.9369 12.3108C29.5036 12.0229 29.022 12.1668 28.8776 12.6466Z" fill="#89E219"/>
<path fill-rule="evenodd" clip-rule="evenodd" d="M26.6143 20.2271C25.6993 23.4417 21.991 25.2651 18.9087 23.9695C21.4611 29.1996 25.2657 36.9241 25.2657 36.9241C25.2657 36.8762 27.8181 35.6286 33.0195 33.1816C31.1414 29.3433 28.974 25.0251 26.6143 20.2271Z" fill="#89E219"/>
<path d="M32.6329 12.7426L29.8878 22.1947C29.7433 22.7225 30.1284 23.202 30.6583 23.202C33.2107 23.1061 35.426 21.379 36.1486 18.8841C36.8708 16.3889 35.9076 13.7502 33.7885 12.3108C33.3552 11.9749 32.7774 12.2148 32.6329 12.7426Z" fill="#89E219"/>
<path d="M11.781 21.091L21.0276 24.8814C21.5092 25.0731 21.6536 25.697 21.3165 26.1287C19.6311 28.0478 16.8859 28.6718 14.4779 27.6641C12.0699 26.6564 10.6251 24.2095 10.8659 21.7146C10.8659 21.1389 11.2994 20.899 11.781 21.091Z" fill="#89E219"/>
<path d="M9.56629 23.8742L18.6684 27.7125C19.15 27.9045 19.2944 28.5282 18.9573 28.9601C17.2718 30.8793 14.5267 31.5029 12.1187 30.4952C9.71077 29.4879 8.26601 27.041 8.50678 24.5458C8.50678 23.97 9.08469 23.6822 9.56629 23.8742Z" fill="#89E219"/>
<path fill-rule="evenodd" clip-rule="evenodd" d="M31.4791 15.0936L30.853 15.3816C26.6631 17.3966 24.9294 22.3863 27.0002 26.5608L29.6971 32.0304C31.72 36.1566 36.7284 37.8841 40.9183 35.8687L41.5444 35.5809C45.7343 33.5659 47.468 28.5758 45.3972 24.4017L42.7003 18.9321C40.6774 14.8057 35.669 13.0785 31.4791 15.0936Z" fill="#89E219"/>
<path fill-rule="evenodd" clip-rule="evenodd" d="M11.8775 24.4013L11.2514 24.6892C7.06156 26.7041 5.3278 31.6942 7.39868 35.8683L10.0956 41.3379C12.1183 45.4645 17.1269 47.1916 21.3169 45.1766L21.8946 44.8884C26.0363 42.8734 27.77 37.8837 25.7957 33.7571L23.1467 28.2396C21.1242 24.1134 16.1155 22.386 11.8775 24.4013Z" fill="#89E219"/>
<path fill-rule="evenodd" clip-rule="evenodd" d="M13.3699 27.472C10.2878 28.9596 9.03571 32.6538 10.5286 35.6765L12.1661 38.9873C13.6592 42.0579 17.3672 43.3055 20.4495 41.818C23.5318 40.3308 24.7839 36.6362 23.2908 33.6135L21.6533 30.303C20.1123 27.28 16.404 25.9848 13.3699 27.472Z" fill="white"/>
<path fill-rule="evenodd" clip-rule="evenodd" d="M15.8274 30.1115C14.3826 30.8313 13.8045 32.5584 14.4788 33.9977L15.8753 36.8287C16.5979 38.268 18.3316 38.8437 19.7764 38.1721C21.2212 37.4523 21.799 35.7252 21.125 34.2856L19.7281 31.4549C19.0542 29.9674 17.3201 29.3917 15.8274 30.1115Z" fill="#4B4B4B"/>
<path d="M14.5254 33.9015C15.5362 33.9015 16.3556 33.0852 16.3556 32.0782C16.3556 31.0712 15.5362 30.2549 14.5254 30.2549C13.5147 30.2549 12.6956 31.0712 12.6956 32.0782C12.6956 33.0852 13.5147 33.9015 14.5254 33.9015Z" fill="white"/>
<path fill-rule="evenodd" clip-rule="evenodd" d="M33.116 17.8286C30.0337 19.3158 28.7816 23.0104 30.2744 26.0331L31.9119 29.3436C33.4049 32.4142 37.1133 33.6618 40.1952 32.1746C43.2775 30.687 44.5296 26.9925 43.0369 23.9698L41.3994 20.6593C39.9063 17.5887 36.198 16.3411 33.116 17.8286Z" fill="white"/>
<path fill-rule="evenodd" clip-rule="evenodd" d="M33.8385 21.475C32.3937 22.1948 31.8159 23.9219 32.4899 25.3612L33.8868 28.1922C34.609 29.6315 36.3427 30.2072 37.7875 29.5356C39.2323 28.8158 39.8101 27.0887 39.1361 25.6491L37.7392 22.8184C37.0652 21.3791 35.3312 20.8034 33.8385 21.475Z" fill="#4B4B4B"/>
<path d="M32.4413 25.4572C33.4521 25.4572 34.2715 24.6408 34.2715 23.6339C34.2715 22.6269 33.4521 21.8105 32.4413 21.8105C31.4305 21.8105 30.6111 22.6269 30.6111 23.6339C30.6111 24.6408 31.4305 25.4572 32.4413 25.4572Z" fill="white"/>
<path d="M12.7927 42.3459L10.1438 36.9721C15.8746 35.8686 20.6427 36.2527 26.0365 37.9798L24.5434 41.5782C24.0618 42.7779 22.7615 43.4015 21.5094 43.0657C19.0052 42.3459 16.5489 42.298 13.9965 42.9216C13.5632 43.0657 13.0333 42.7779 12.7927 42.3459Z" fill="#89E219"/>
<path d="M45.2522 27.76L43.2779 21.9546C38.4136 25.2172 35.2834 28.8156 32.731 33.8536L37.6431 35.9165C38.173 36.1564 38.799 35.9165 39.0397 35.3887C40.34 32.606 42.2664 30.4469 44.8671 28.8635C45.2043 28.6718 45.397 28.1919 45.2522 27.76Z" fill="#89E219"/>
<path fill-rule="evenodd" clip-rule="evenodd" d="M27.6739 31.9827C26.0846 32.7504 25.4586 34.6217 26.2294 36.2047L26.6145 36.9724C27.385 38.5558 29.3114 39.1794 30.8527 38.4121C32.4419 37.6443 33.068 35.7731 32.2975 34.1897L31.9121 33.422C31.1895 31.8386 29.2635 31.215 27.6739 31.9827Z" fill="#F49000"/>
<path d="M33.116 33.2299C31.9122 31.5986 29.5524 30.975 27.4816 32.0305C25.6031 32.942 24.6399 35.149 25.218 37.1165L25.3142 37.3564L29.6004 36.1088L33.2604 33.5177L33.116 33.2299Z" fill="#FFC200"/>
<path d="M27.5784 34.4776C27.434 34.4776 27.2416 34.4297 27.1451 34.2856C26.9044 34.0456 26.9044 33.6619 27.1451 33.422C27.7232 32.8463 28.4454 32.4626 29.2642 32.3664C29.6013 32.3185 29.9385 32.5584 29.9385 32.9421C29.9864 33.2783 29.7458 33.614 29.3604 33.614C28.8308 33.6619 28.3972 33.9019 28.0121 34.2856C27.8676 34.4297 27.7232 34.4776 27.5784 34.4776Z" fill="#FFDE00"/>
</g>
</svg>
